<svg xmlns="http://www.w3.org/2000/svg" width="151.695" height="42.971" viewBox="0 0 151.695 42.971">
  <g id="Group_999" data-name="Group 999" transform="translate(-38.172 -70.867)">
    <g id="Group_462" data-name="Group 462" transform="translate(38.315 107.177)">
      <path id="Path_5808" data-name="Path 5808" d="M41.749,113.12h-.287q-.229-.737-.723-2.011l-.924-2.378a11.333,11.333,0,0,0-.6-1.377,1.1,1.1,0,0,0-.33-.371,1.05,1.05,0,0,0-.454-.121q-.122-.011-.122-.089c0-.062.041-.093.122-.093h2.559q.239,0,.239.083c0,.072-.052.108-.156.108-.429,0-.644.185-.644.551a2.4,2.4,0,0,0,.058.42,6.024,6.024,0,0,0,.2.708q.145.419.62,1.722t.609,1.6l1.045-2.895a6.653,6.653,0,0,0,.45-1.548c0-.341-.212-.531-.635-.566-.085-.007-.127-.038-.127-.094a.068.068,0,0,1,.047-.07,1.179,1.179,0,0,1,.271-.017H44.6a1.569,1.569,0,0,1,.266.012.063.063,0,0,1,.046.07c0,.059-.063.1-.19.117a.869.869,0,0,0-.55.267,3.218,3.218,0,0,0-.351.508q-.168.3-.9,2.351Q42.663,110.728,41.749,113.12Z" transform="translate(-38.312 -106.485)" fill="#597593"/>
      <path id="Path_5809" data-name="Path 5809" d="M45.559,106.575l.89.019,1.365-.019q.245,0,.245.1c0,.049-.044.08-.133.092a.762.762,0,0,0-.676.391,10.692,10.692,0,0,0-.135,2.383q0,.757.039,1.7a8.394,8.394,0,0,0,.089,1.133.576.576,0,0,0,.186.3,1.023,1.023,0,0,0,.508.167q.122.014.122.092t-.113.089l-1.213-.01-1.033.015c-.113,0-.17-.034-.17-.1s.045-.1.136-.1q.456-.009.533-.3a11.75,11.75,0,0,0,.078-1.869q0-1.524-.028-2.467a3.033,3.033,0,0,0-.158-1.152.668.668,0,0,0-.5-.264c-.092-.015-.137-.053-.137-.112S45.49,106.575,45.559,106.575Z" transform="translate(-38.174 -106.487)" fill="#597593"/>
      <path id="Path_5810" data-name="Path 5810" d="M52.67,109.742a2.518,2.518,0,0,1,.943.615,2.2,2.2,0,0,1,.391.99,2.411,2.411,0,0,0,.456,1.181,1.077,1.077,0,0,0,.764.322c.088.006.131.039.131.095s-.051.087-.152.087a8.315,8.315,0,0,1-1.657-.091q-.29-.09-.432-1a7.6,7.6,0,0,0-.276-1.291,1.231,1.231,0,0,0-.459-.625,1.76,1.76,0,0,0-.984-.217,3.441,3.441,0,0,0-.576.054q-.024.307-.024.638c0,.835.011,1.376.034,1.621a.827.827,0,0,0,.208.536.836.836,0,0,0,.578.178c.117,0,.176.032.176.086s-.072.095-.215.095H49.159c-.141,0-.21-.032-.21-.095s.055-.086.166-.086a.873.873,0,0,0,.515-.112.738.738,0,0,0,.227-.349,2.983,2.983,0,0,0,.083-.856l-.009-1,.005-1.517a14.1,14.1,0,0,0-.052-1.537.893.893,0,0,0-.182-.506,1.234,1.234,0,0,0-.611-.2c-.069-.009-.1-.038-.1-.083s.068-.079.2-.079l2.891-.063a2.663,2.663,0,0,1,1.736.458,1.443,1.443,0,0,1,.322,1.889,1.374,1.374,0,0,1-.515.5A6.02,6.02,0,0,1,52.67,109.742Zm-1.85-.124a7.051,7.051,0,0,0,1.406-.132,1.5,1.5,0,0,0,.8-.493,1.333,1.333,0,0,0,.33-.9,1.4,1.4,0,0,0-.367-.962,1.5,1.5,0,0,0-1.171-.41,4.528,4.528,0,0,0-.972.117q-.058,1.342-.058,2.139Q50.785,109.247,50.819,109.617Z" transform="translate(-38.106 -106.488)" fill="#597593"/>
      <path id="Path_5811" data-name="Path 5811" d="M57.976,106.892c-.254-.012-.433-.019-.537-.019a2.194,2.194,0,0,0-1.529.441,1.706,1.706,0,0,0-.552.784c-.016.082-.06.122-.13.122a.127.127,0,0,1-.093-.047,13.3,13.3,0,0,1,.191-1.569c.156,0,.255-.005.3-.005q.381,0,1.02.039.69.04,2.109.04,1.456,0,1.895-.035c.267-.025.634-.039,1.1-.039a6.334,6.334,0,0,1,.078.732c.019.291.039.493.058.611a.707.707,0,0,1,.005.083c0,.078-.034.117-.1.117a.136.136,0,0,1-.1-.042,2.185,2.185,0,0,1-.189-.275,2.253,2.253,0,0,0-.527-.6,1.426,1.426,0,0,0-.611-.261,11.267,11.267,0,0,0-1.363-.078q-.06.737-.059,1.685a26.412,26.412,0,0,0,.135,3.7q.133.561.959.562c.134,0,.2.028.2.084s-.063.1-.19.1h-3c-.078,0-.117-.031-.117-.093s.076-.093.229-.093a.839.839,0,0,0,.9-.805q.037-.372.037-2.144Q58.079,108.366,57.976,106.892Z" transform="translate(-37.987 -106.487)" fill="#597593"/>
      <path id="Path_5812" data-name="Path 5812" d="M62.531,106.623h2.445c.141,0,.21.029.21.088s-.052.093-.156.1a.848.848,0,0,0-.513.191,1.066,1.066,0,0,0-.252.551,10.376,10.376,0,0,0-.085,1.694,17.1,17.1,0,0,0,.09,2.158,1.407,1.407,0,0,0,.567.955,2.132,2.132,0,0,0,1.3.354,2.207,2.207,0,0,0,1.309-.327,1.538,1.538,0,0,0,.583-.971,17.632,17.632,0,0,0,.135-2.8,3,3,0,0,0-.229-1.453.765.765,0,0,0-.679-.345c-.12,0-.18-.034-.18-.1s.079-.1.239-.1h1.954c.088,0,.13.033.13.1,0,.045-.035.072-.107.083a.917.917,0,0,0-.544.234,1.143,1.143,0,0,0-.226.654,13.086,13.086,0,0,0-.054,1.391,18.723,18.723,0,0,1-.086,1.948,2.51,2.51,0,0,1-.369,1.194,1.947,1.947,0,0,1-.852.635,3.578,3.578,0,0,1-1.4.243,3.493,3.493,0,0,1-1.447-.272,1.545,1.545,0,0,1-.81-.718,3.244,3.244,0,0,1-.213-1.336l.019-1.355a8.808,8.808,0,0,0-.154-2.206.647.647,0,0,0-.662-.413c-.11,0-.166-.026-.166-.081S62.394,106.623,62.531,106.623Z" transform="translate(-37.848 -106.486)" fill="#597593"/>
      <path id="Path_5813" data-name="Path 5813" d="M72.151,106.5h.225q.546,1.119,1.5,3.823a17.621,17.621,0,0,0,.849,2.126.888.888,0,0,0,.739.437q.162.014.162.107c0,.046-.029.068-.084.068l-.068-.005c-.3-.025-.68-.039-1.143-.039q-1.064,0-1.367.034c-.1,0-.151-.029-.151-.087,0-.043.037-.069.112-.078a1.366,1.366,0,0,0,.573-.142.356.356,0,0,0,.159-.322,4.68,4.68,0,0,0-.3-1.05l-.287-.84q-.254,0-2.271.029a7.143,7.143,0,0,0-.508,1.706.477.477,0,0,0,.252.444,1.111,1.111,0,0,0,.494.159c.121.01.181.046.181.11,0,.025-.019.049-.059.07q-.781-.034-.942-.034c-.547,0-.915.007-1.1.019-.1,0-.156-.029-.156-.088s.046-.085.137-.1a1.109,1.109,0,0,0,.859-.761q.3-.688.929-2.475Q71.467,107.987,72.151,106.5Zm-.195,1.065a24.577,24.577,0,0,0-1.061,2.7q.5-.024.723-.024l1.372.024q-.18-.508-.508-1.348Q72.084,107.909,71.957,107.563Z" transform="translate(-37.72 -106.489)" fill="#597593"/>
      <path id="Path_5814" data-name="Path 5814" d="M81.469,113.04l-.273.009c-.12,0-.339-.005-.655-.016s-.972-.017-1.969-.017H77.33c-.047,0-.212.008-.5.024s-.461.024-.523.024c-.248,0-.371-.033-.371-.1s.049-.08.146-.083a1.076,1.076,0,0,0,.659-.2.926.926,0,0,0,.255-.5,12.665,12.665,0,0,0,.068-1.757l0-1.749a6.318,6.318,0,0,0-.075-1.187.852.852,0,0,0-.313-.515,1,1,0,0,0-.534-.2c-.1-.009-.156-.045-.156-.1s.047-.09.141-.09c.023,0,.065,0,.127,0q.777.05,1.816.05l.859-.015q.131,0,.132.1c0,.058-.047.088-.141.088a1.119,1.119,0,0,0-.579.138.7.7,0,0,0-.308.314,2.073,2.073,0,0,0-.075.7l-.039,2.31.009,1.289a3.679,3.679,0,0,0,.051.781.684.684,0,0,0,.213.324.889.889,0,0,0,.586.145l.875-.03a2.027,2.027,0,0,0,1.2-.654,3.328,3.328,0,0,0,.707-1.006c.036-.085.08-.126.131-.126s.083.039.083.117-.047.417-.14.979S81.491,112.958,81.469,113.04Z" transform="translate(-37.585 -106.487)" fill="#597593"/>
      <path id="Path_5815" data-name="Path 5815" d="M87.526,106.5h.225q.546,1.119,1.5,3.823a17.621,17.621,0,0,0,.849,2.126.888.888,0,0,0,.739.437q.162.014.162.107c0,.046-.029.068-.084.068l-.068-.005c-.3-.025-.68-.039-1.143-.039q-1.064,0-1.367.034c-.1,0-.152-.029-.152-.087,0-.043.038-.069.113-.078a1.366,1.366,0,0,0,.573-.142.356.356,0,0,0,.159-.322,4.681,4.681,0,0,0-.3-1.05l-.287-.84q-.254,0-2.271.029a7.166,7.166,0,0,0-.509,1.706.479.479,0,0,0,.252.444,1.119,1.119,0,0,0,.5.159c.12.01.181.046.181.11,0,.025-.019.049-.059.07q-.781-.034-.943-.034c-.546,0-.914.007-1.1.019-.1,0-.156-.029-.156-.088s.046-.085.137-.1a1.109,1.109,0,0,0,.859-.761q.3-.688.929-2.475Q86.842,107.987,87.526,106.5Zm-.195,1.065a24.376,24.376,0,0,0-1.061,2.7q.5-.024.723-.024l1.372.024q-.18-.508-.508-1.348C87.592,108.243,87.415,107.794,87.332,107.563Z" transform="translate(-37.423 -106.489)" fill="#597593"/>
      <path id="Path_5816" data-name="Path 5816" d="M94.98,106.971a.686.686,0,0,0,.176-.274c.025-.077.063-.117.112-.117a.138.138,0,0,1,.088.05q.034.176.1.707l.117.917c0,.059-.036.089-.108.089-.039,0-.073-.033-.1-.1a2.688,2.688,0,0,0-.767-1.064,1.7,1.7,0,0,0-1.109-.42,1.1,1.1,0,0,0-.891.357,1.158,1.158,0,0,0-.3.756.894.894,0,0,0,.328.747,4.813,4.813,0,0,0,1.347.586,5.6,5.6,0,0,1,1.125.454,1.865,1.865,0,0,1,.628.616,1.544,1.544,0,0,1,.254.849,1.867,1.867,0,0,1-.639,1.382,2.187,2.187,0,0,1-1.568.611,3.175,3.175,0,0,1-1.68-.523.611.611,0,0,0-.214.323c-.026.1-.068.156-.127.156s-.09-.067-.113-.2-.069-.765-.141-1.894c.012-.04.047-.059.1-.059s.089.036.117.108q.752,1.89,2.1,1.89a1.368,1.368,0,0,0,1.048-.4,1.314,1.314,0,0,0,.378-.926,1.165,1.165,0,0,0-.2-.664,1.532,1.532,0,0,0-.537-.488,6.159,6.159,0,0,0-1.057-.415,4.326,4.326,0,0,1-1.262-.564,1.674,1.674,0,0,1-.49-.6,1.511,1.511,0,0,1-.157-.647,1.487,1.487,0,0,1,.588-1.152,2.145,2.145,0,0,1,1.443-.5,2.424,2.424,0,0,1,.676.1A3.669,3.669,0,0,1,94.98,106.971Z" transform="translate(-37.284 -106.488)" fill="#597593"/>
      <path id="Path_5817" data-name="Path 5817" d="M100.141,106.971a.694.694,0,0,0,.175-.274c.025-.077.063-.117.112-.117a.136.136,0,0,1,.088.05c.022.117.056.353.1.707l.117.917q0,.089-.107.089c-.039,0-.073-.033-.1-.1a2.668,2.668,0,0,0-.767-1.064,1.7,1.7,0,0,0-1.108-.42,1.1,1.1,0,0,0-.892.357,1.157,1.157,0,0,0-.3.756.9.9,0,0,0,.327.747,4.823,4.823,0,0,0,1.348.586,5.625,5.625,0,0,1,1.125.454,1.884,1.884,0,0,1,.628.616,1.544,1.544,0,0,1,.254.849,1.869,1.869,0,0,1-.64,1.382,2.186,2.186,0,0,1-1.568.611,3.169,3.169,0,0,1-1.679-.523.613.613,0,0,0-.215.323c-.027.1-.068.156-.127.156s-.09-.067-.112-.2-.07-.765-.142-1.894c.013-.04.048-.059.1-.059s.088.036.117.108q.751,1.89,2.1,1.89a1.367,1.367,0,0,0,1.048-.4,1.315,1.315,0,0,0,.379-.926,1.166,1.166,0,0,0-.2-.664,1.529,1.529,0,0,0-.536-.488,6.177,6.177,0,0,0-1.058-.415,4.353,4.353,0,0,1-1.262-.564,1.684,1.684,0,0,1-.49-.6,1.511,1.511,0,0,1-.157-.647,1.488,1.488,0,0,1,.589-1.152,2.144,2.144,0,0,1,1.442-.5,2.436,2.436,0,0,1,.677.1A3.718,3.718,0,0,1,100.141,106.971Z" transform="translate(-37.185 -106.488)" fill="#597593"/>
      <path id="Path_5818" data-name="Path 5818" d="M101.853,109.779a3.234,3.234,0,0,1,.4-1.447,3.391,3.391,0,0,1,1.169-1.3,3.06,3.06,0,0,1,1.736-.513,2.892,2.892,0,0,1,2.234.967,3.184,3.184,0,0,1,.881,2.207,3.379,3.379,0,0,1-.977,2.366,3.1,3.1,0,0,1-2.349,1.048,2.952,2.952,0,0,1-2.2-.918A3.311,3.311,0,0,1,101.853,109.779Zm1.089-.158a5.854,5.854,0,0,0,.244,1.634,2.206,2.206,0,0,0,.766,1.217,1.874,1.874,0,0,0,1.117.378,1.747,1.747,0,0,0,1.539-.936,4.04,4.04,0,0,0,.578-2.167,3.733,3.733,0,0,0-.59-2.094,1.776,1.776,0,0,0-1.541-.9,1.616,1.616,0,0,0-1.195.48,2.881,2.881,0,0,0-.7,1.152A4,4,0,0,0,102.942,109.621Z" transform="translate(-37.084 -106.488)" fill="#597593"/>
      <path id="Path_5819" data-name="Path 5819" d="M114.057,107.03a1.551,1.551,0,0,0,.309-.322c.032-.077.078-.117.141-.117s.1.059.108.175l.107,1.7a.714.714,0,0,1-.012.178c-.008.021-.032.033-.071.033s-.107-.07-.165-.211a3.334,3.334,0,0,0-.9-1.274,1.91,1.91,0,0,0-1.259-.493,1.755,1.755,0,0,0-1.095.384,2.47,2.47,0,0,0-.774,1.093,4.19,4.19,0,0,0-.275,1.526,3.282,3.282,0,0,0,.764,2.254,2.242,2.242,0,0,0,1.706.866,1.91,1.91,0,0,0,1.177-.4,2.745,2.745,0,0,0,.81-.938c.049-.1.1-.147.152-.147.071,0,.107.039.107.117a1.629,1.629,0,0,1-.371.621,2.736,2.736,0,0,1-.974.776,2.887,2.887,0,0,1-1.3.3,3.172,3.172,0,0,1-2.715-1.563,3.335,3.335,0,0,1-.43-1.719,3.607,3.607,0,0,1,.419-1.743,2.982,2.982,0,0,1,1.174-1.207,3.135,3.135,0,0,1,1.565-.429,3.1,3.1,0,0,1,.88.134A4.249,4.249,0,0,1,114.057,107.03Z" transform="translate(-36.944 -106.489)" fill="#597593"/>
      <path id="Path_5820" data-name="Path 5820" d="M115.682,106.575l.89.019,1.365-.019q.245,0,.245.1,0,.073-.132.092a.764.764,0,0,0-.677.391,10.8,10.8,0,0,0-.134,2.383q0,.757.039,1.7a8.668,8.668,0,0,0,.088,1.133.582.582,0,0,0,.186.3,1.028,1.028,0,0,0,.509.167c.082.009.121.04.121.092s-.038.089-.112.089l-1.214-.01-1.032.015c-.114,0-.171-.034-.171-.1s.046-.1.137-.1q.454-.009.532-.3a11.747,11.747,0,0,0,.079-1.869q0-1.524-.027-2.467a3.047,3.047,0,0,0-.159-1.152.664.664,0,0,0-.5-.264c-.092-.015-.138-.053-.138-.112S115.614,106.575,115.682,106.575Z" transform="translate(-36.819 -106.487)" fill="#597593"/>
      <path id="Path_5821" data-name="Path 5821" d="M121.956,106.5h.225q.544,1.119,1.5,3.823a17.44,17.44,0,0,0,.849,2.126.888.888,0,0,0,.739.437c.107.009.162.045.162.107,0,.046-.029.068-.084.068l-.068-.005q-.45-.038-1.143-.039-1.064,0-1.368.034c-.1,0-.151-.029-.151-.087,0-.043.038-.069.112-.078a1.376,1.376,0,0,0,.574-.142.356.356,0,0,0,.159-.322,4.68,4.68,0,0,0-.3-1.05l-.287-.84q-.254,0-2.271.029a7.167,7.167,0,0,0-.509,1.706.477.477,0,0,0,.252.444,1.119,1.119,0,0,0,.5.159c.12.01.18.046.18.11,0,.025-.018.049-.058.07q-.781-.034-.943-.034c-.546,0-.914.007-1.1.019-.1,0-.156-.029-.156-.088s.045-.085.137-.1a1.109,1.109,0,0,0,.859-.761q.3-.688.929-2.475Q121.272,107.987,121.956,106.5Zm-.195,1.065a24.378,24.378,0,0,0-1.061,2.7q.5-.024.723-.024l1.372.024q-.18-.508-.508-1.348Q121.889,107.909,121.762,107.563Z" transform="translate(-36.757 -106.489)" fill="#597593"/>
      <path id="Path_5822" data-name="Path 5822" d="M127.826,106.892c-.254-.012-.433-.019-.537-.019a2.2,2.2,0,0,0-1.529.441,1.705,1.705,0,0,0-.552.784c-.015.082-.059.122-.131.122a.127.127,0,0,1-.093-.047,13.528,13.528,0,0,1,.191-1.569c.157,0,.256-.005.3-.005q.381,0,1.019.039.69.04,2.11.04,1.456,0,1.895-.035.4-.038,1.1-.039a6.341,6.341,0,0,1,.078.732c.019.291.039.493.058.611a.537.537,0,0,1,.005.083c0,.078-.034.117-.1.117a.138.138,0,0,1-.1-.042,2.114,2.114,0,0,1-.188-.275,2.255,2.255,0,0,0-.528-.6,1.42,1.42,0,0,0-.611-.261,11.251,11.251,0,0,0-1.363-.078q-.06.737-.059,1.685a26.412,26.412,0,0,0,.135,3.7q.135.561.959.562c.134,0,.2.028.2.084s-.063.1-.191.1h-3c-.078,0-.117-.031-.117-.093s.076-.093.229-.093a.839.839,0,0,0,.9-.805q.037-.372.037-2.144Q127.929,108.366,127.826,106.892Z" transform="translate(-36.637 -106.487)" fill="#597593"/>
      <path id="Path_5823" data-name="Path 5823" d="M137.439,106.682a14.339,14.339,0,0,1,.279,1.533c-.016.026-.034.039-.052.039a.109.109,0,0,1-.073-.039,3.993,3.993,0,0,0-.644-.825,2,2,0,0,0-.618-.4,3.348,3.348,0,0,0-1.068-.119,6.051,6.051,0,0,0-1.128.083.3.3,0,0,0-.04.181c0,.022,0,.062-.009.121q-.049.39-.049,2.115,0,.073.009.2c.248.01.418.014.509.014a1.662,1.662,0,0,0,.892-.183,1.519,1.519,0,0,0,.481-.792c.022-.069.055-.1.1-.1.062,0,.093.047.093.142l-.02.2a7.809,7.809,0,0,0-.039.8q0,.667.024,1.2c0,.111-.03.166-.09.166-.044,0-.073-.039-.09-.117a1.283,1.283,0,0,0-.431-.83,2.616,2.616,0,0,0-1.426-.254q-.014.356-.014,1.152a6.862,6.862,0,0,0,.073,1.309.717.717,0,0,0,.352.442,1.977,1.977,0,0,0,.943.163,2.364,2.364,0,0,0,2.452-1.309c.046-.107.092-.161.141-.161s.076.036.076.108a.4.4,0,0,1-.023.126q-.031.093-.142.694-.024.127-.186.761l-2.046-.005q-.44,0-1.293-.037t-1.509-.039a4.034,4.034,0,0,1-.686-.028.068.068,0,0,1-.03-.053q0-.1.162-.1a.765.765,0,0,0,.713-.287,3.432,3.432,0,0,0,.171-1.4l-.005-1,.014-.938q0-.281-.032-1.07a8.485,8.485,0,0,0-.059-.9.442.442,0,0,0-.151-.222,1.539,1.539,0,0,0-.549-.222c-.085-.022-.126-.058-.126-.107s.056-.088.17-.088l1,.053q.529.026,2.593.025Q137.411,106.677,137.439,106.682Z" transform="translate(-36.499 -106.487)" fill="#597593"/>
      <path id="Path_5824" data-name="Path 5824" d="M144.732,106.971a.686.686,0,0,0,.176-.274c.025-.077.063-.117.112-.117a.138.138,0,0,1,.088.05q.034.176.1.707l.117.917c0,.059-.036.089-.108.089-.039,0-.073-.033-.1-.1a2.678,2.678,0,0,0-.767-1.064,1.7,1.7,0,0,0-1.109-.42,1.1,1.1,0,0,0-.891.357,1.157,1.157,0,0,0-.3.756.894.894,0,0,0,.327.747,4.808,4.808,0,0,0,1.348.586,5.61,5.61,0,0,1,1.124.454,1.865,1.865,0,0,1,.628.616,1.543,1.543,0,0,1,.254.849,1.867,1.867,0,0,1-.639,1.382,2.186,2.186,0,0,1-1.568.611,3.175,3.175,0,0,1-1.68-.523.612.612,0,0,0-.214.323c-.027.1-.068.156-.127.156s-.09-.067-.112-.2-.07-.765-.142-1.894c.012-.04.047-.059.1-.059s.089.036.117.108q.752,1.89,2.1,1.89a1.367,1.367,0,0,0,1.048-.4,1.314,1.314,0,0,0,.378-.926,1.165,1.165,0,0,0-.2-.664,1.532,1.532,0,0,0-.537-.488,6.16,6.16,0,0,0-1.057-.415,4.326,4.326,0,0,1-1.262-.564,1.673,1.673,0,0,1-.49-.6,1.511,1.511,0,0,1-.157-.647,1.487,1.487,0,0,1,.588-1.152,2.145,2.145,0,0,1,1.443-.5,2.424,2.424,0,0,1,.676.1A3.669,3.669,0,0,1,144.732,106.971Z" transform="translate(-36.323 -106.488)" fill="#597593"/>
      <path id="Path_5825" data-name="Path 5825" d="M151.588,106.682a14.337,14.337,0,0,1,.279,1.533c-.016.026-.034.039-.052.039a.109.109,0,0,1-.073-.039,3.992,3.992,0,0,0-.644-.825,2,2,0,0,0-.618-.4,3.348,3.348,0,0,0-1.068-.119,6.052,6.052,0,0,0-1.128.083.3.3,0,0,0-.04.181c0,.022,0,.062-.009.121q-.049.39-.049,2.115,0,.073.009.2c.248.01.418.014.509.014a1.66,1.66,0,0,0,.892-.183,1.519,1.519,0,0,0,.481-.792c.022-.069.055-.1.1-.1.062,0,.093.047.093.142l-.02.2q-.038.387-.039.8,0,.667.024,1.2c0,.111-.03.166-.09.166-.044,0-.073-.039-.09-.117a1.283,1.283,0,0,0-.431-.83,2.616,2.616,0,0,0-1.426-.254q-.014.356-.014,1.152a6.86,6.86,0,0,0,.073,1.309.717.717,0,0,0,.352.442,1.978,1.978,0,0,0,.943.163A2.364,2.364,0,0,0,152,111.564c.046-.107.092-.161.141-.161s.076.036.076.108a.4.4,0,0,1-.023.126q-.031.093-.142.694-.025.127-.186.761l-2.046-.005q-.44,0-1.291-.037t-1.51-.039a4.033,4.033,0,0,1-.686-.028.068.068,0,0,1-.03-.053q0-.1.162-.1a.764.764,0,0,0,.712-.287,3.431,3.431,0,0,0,.171-1.4l-.005-1,.014-.938q0-.281-.032-1.07a8.979,8.979,0,0,0-.058-.9.452.452,0,0,0-.152-.222,1.539,1.539,0,0,0-.549-.222c-.085-.022-.126-.058-.126-.107s.057-.088.17-.088l1,.053q.529.026,2.593.025Q151.56,106.677,151.588,106.682Z" transform="translate(-36.225 -106.487)" fill="#597593"/>
      <path id="Path_5826" data-name="Path 5826" d="M156.557,109.742a2.518,2.518,0,0,1,.943.615,2.2,2.2,0,0,1,.391.99,2.422,2.422,0,0,0,.456,1.181,1.078,1.078,0,0,0,.765.322c.088.006.131.039.131.095s-.051.087-.152.087a8.316,8.316,0,0,1-1.657-.091q-.29-.09-.432-1a7.606,7.606,0,0,0-.276-1.291,1.231,1.231,0,0,0-.459-.625,1.76,1.76,0,0,0-.984-.217,3.44,3.44,0,0,0-.576.054q-.024.307-.024.638c0,.835.011,1.376.034,1.621a.827.827,0,0,0,.208.536.836.836,0,0,0,.578.178c.117,0,.176.032.176.086s-.072.095-.215.095h-2.417c-.141,0-.21-.032-.21-.095s.055-.086.166-.086a.873.873,0,0,0,.515-.112.731.731,0,0,0,.227-.349,2.984,2.984,0,0,0,.083-.856l-.009-1,.005-1.517a14.1,14.1,0,0,0-.052-1.537.893.893,0,0,0-.182-.506,1.234,1.234,0,0,0-.611-.2c-.068-.009-.1-.038-.1-.083s.068-.079.206-.079l2.89-.063a2.663,2.663,0,0,1,1.736.458,1.443,1.443,0,0,1,.322,1.889,1.366,1.366,0,0,1-.515.5A6.019,6.019,0,0,1,156.557,109.742Zm-1.85-.124a7.042,7.042,0,0,0,1.406-.132,1.5,1.5,0,0,0,.8-.493,1.337,1.337,0,0,0,.329-.9,1.4,1.4,0,0,0-.366-.962,1.5,1.5,0,0,0-1.172-.41,4.528,4.528,0,0,0-.972.117q-.058,1.342-.058,2.139Q154.672,109.247,154.706,109.617Z" transform="translate(-36.099 -106.488)" fill="#597593"/>
      <path id="Path_5827" data-name="Path 5827" d="M162.114,113.12h-.288q-.229-.737-.723-2.011l-.922-2.378a11.445,11.445,0,0,0-.6-1.377,1.112,1.112,0,0,0-.329-.371,1.056,1.056,0,0,0-.455-.121q-.122-.011-.122-.089c0-.062.041-.093.122-.093h2.558c.159,0,.24.028.24.083,0,.072-.052.108-.156.108-.43,0-.645.185-.645.551a2.424,2.424,0,0,0,.059.42,5.8,5.8,0,0,0,.2.708q.145.419.621,1.722t.608,1.6l1.045-2.895a6.655,6.655,0,0,0,.449-1.548c0-.341-.212-.531-.635-.566-.085-.007-.126-.038-.126-.094a.068.068,0,0,1,.046-.07,1.179,1.179,0,0,1,.271-.017h1.631a1.569,1.569,0,0,1,.266.012.063.063,0,0,1,.047.07c0,.059-.064.1-.191.117a.863.863,0,0,0-.549.267,3.151,3.151,0,0,0-.352.508q-.168.3-.9,2.351Q163.027,110.728,162.114,113.12Z" transform="translate(-35.986 -106.485)" fill="#597593"/>
      <path id="Path_5828" data-name="Path 5828" d="M165.923,106.575l.89.019,1.365-.019q.245,0,.245.1,0,.073-.131.092c-.362.047-.587.176-.677.391a10.8,10.8,0,0,0-.133,2.383q0,.757.039,1.7a8.286,8.286,0,0,0,.088,1.133.576.576,0,0,0,.186.3,1.027,1.027,0,0,0,.508.167q.122.014.122.092c0,.059-.038.089-.112.089l-1.214-.01-1.032.015c-.114,0-.171-.034-.171-.1s.046-.1.137-.1q.454-.009.532-.3a11.751,11.751,0,0,0,.078-1.869q0-1.524-.026-2.467a3.047,3.047,0,0,0-.159-1.152.666.666,0,0,0-.5-.264c-.091-.015-.137-.053-.137-.112S165.854,106.575,165.923,106.575Z" transform="translate(-35.848 -106.487)" fill="#597593"/>
      <path id="Path_5829" data-name="Path 5829" d="M174.413,107.03a1.563,1.563,0,0,0,.308-.322c.032-.077.08-.117.141-.117s.1.059.108.175l.107,1.7a.8.8,0,0,1-.011.178c-.009.021-.033.033-.071.033s-.108-.07-.166-.211a3.334,3.334,0,0,0-.9-1.274,1.91,1.91,0,0,0-1.259-.493,1.752,1.752,0,0,0-1.094.384,2.464,2.464,0,0,0-.775,1.093,4.19,4.19,0,0,0-.275,1.526,3.282,3.282,0,0,0,.765,2.254,2.246,2.246,0,0,0,1.707.866,1.91,1.91,0,0,0,1.176-.4,2.749,2.749,0,0,0,.811-.938c.048-.1.1-.147.151-.147.071,0,.108.039.108.117a1.622,1.622,0,0,1-.372.621,2.736,2.736,0,0,1-.975.776,2.883,2.883,0,0,1-1.3.3,3.172,3.172,0,0,1-2.715-1.563,3.334,3.334,0,0,1-.429-1.719,3.618,3.618,0,0,1,.418-1.743,2.978,2.978,0,0,1,1.175-1.207,3.129,3.129,0,0,1,1.564-.429,3.089,3.089,0,0,1,.88.134A4.277,4.277,0,0,1,174.413,107.03Z" transform="translate(-35.778 -106.489)" fill="#597593"/>
      <path id="Path_5830" data-name="Path 5830" d="M180.939,106.682a14.131,14.131,0,0,1,.278,1.533.064.064,0,0,1-.052.039.107.107,0,0,1-.072-.039,3.959,3.959,0,0,0-.645-.825,1.975,1.975,0,0,0-.618-.4,3.345,3.345,0,0,0-1.067-.119,6.072,6.072,0,0,0-1.129.083.308.308,0,0,0-.039.181,1.154,1.154,0,0,1-.01.121q-.049.39-.049,2.115c0,.049,0,.117.01.2.248.01.417.014.508.014a1.657,1.657,0,0,0,.892-.183,1.519,1.519,0,0,0,.482-.792c.022-.069.055-.1.1-.1.061,0,.092.047.092.142l-.019.2a7.8,7.8,0,0,0-.039.8q0,.667.023,1.2c0,.111-.03.166-.089.166s-.074-.039-.09-.117a1.292,1.292,0,0,0-.431-.83,2.616,2.616,0,0,0-1.426-.254q-.015.356-.015,1.152a6.949,6.949,0,0,0,.073,1.309.716.716,0,0,0,.353.442,1.977,1.977,0,0,0,.943.163,2.364,2.364,0,0,0,2.452-1.309c.045-.107.092-.161.14-.161s.077.036.077.108a.374.374,0,0,1-.024.126q-.029.093-.142.694-.024.127-.186.761l-2.046-.005q-.439,0-1.291-.037t-1.509-.039a4.013,4.013,0,0,1-.686-.028.068.068,0,0,1-.03-.053c0-.065.054-.1.161-.1a.762.762,0,0,0,.712-.287,3.425,3.425,0,0,0,.172-1.4l-.005-1,.014-.938q0-.281-.033-1.07a8.651,8.651,0,0,0-.058-.9.443.443,0,0,0-.151-.222,1.549,1.549,0,0,0-.549-.222c-.085-.022-.127-.058-.127-.107s.057-.088.171-.088l1,.053q.528.026,2.593.025Q180.909,106.677,180.939,106.682Z" transform="translate(-35.658 -106.487)" fill="#597593"/>
      <path id="Path_5831" data-name="Path 5831" d="M185.73,106.971a.686.686,0,0,0,.176-.274c.025-.077.063-.117.112-.117a.138.138,0,0,1,.088.05q.034.176.1.707l.117.917c0,.059-.036.089-.108.089-.039,0-.073-.033-.1-.1a2.678,2.678,0,0,0-.767-1.064,1.7,1.7,0,0,0-1.109-.42,1.1,1.1,0,0,0-.891.357,1.157,1.157,0,0,0-.3.756.894.894,0,0,0,.327.747,4.808,4.808,0,0,0,1.348.586,5.613,5.613,0,0,1,1.124.454,1.866,1.866,0,0,1,.628.616,1.544,1.544,0,0,1,.254.849,1.867,1.867,0,0,1-.639,1.382,2.186,2.186,0,0,1-1.568.611,3.175,3.175,0,0,1-1.68-.523.611.611,0,0,0-.214.323c-.026.1-.068.156-.127.156s-.09-.067-.112-.2-.07-.765-.142-1.894c.012-.04.047-.059.1-.059s.089.036.117.108q.752,1.89,2.1,1.89a1.367,1.367,0,0,0,1.048-.4,1.314,1.314,0,0,0,.378-.926,1.165,1.165,0,0,0-.2-.664,1.532,1.532,0,0,0-.537-.488,6.158,6.158,0,0,0-1.057-.415,4.325,4.325,0,0,1-1.262-.564,1.673,1.673,0,0,1-.49-.6,1.511,1.511,0,0,1-.157-.647,1.487,1.487,0,0,1,.588-1.152,2.145,2.145,0,0,1,1.443-.5,2.424,2.424,0,0,1,.676.1A3.669,3.669,0,0,1,185.73,106.971Z" transform="translate(-35.531 -106.488)" fill="#597593"/>
    </g>
    <g id="Group_464" data-name="Group 464" transform="translate(38.172 70.867)">
      <g id="Group_463" data-name="Group 463">
        <path id="Path_5832" data-name="Path 5832" d="M45.075,70.867q.064,2.682.106,5.365l-.042,13.262.085,6.43a5.05,5.05,0,0,0,.522,2.639,2.826,2.826,0,0,0,2.248.958c.455.043.682.178.682.4q0,.362-.553.363c-.1,0-.22-.008-.363-.021q-2.194-.214-5.24-.213a18.769,18.769,0,0,0-2.983.189,4.134,4.134,0,0,1-.426.024q-.639,0-.639-.394,0-.372.575-.394a2.687,2.687,0,0,0,2.546-1.118,8.09,8.09,0,0,0,.607-3.675l-.063-12.143q-.021-5.859-.16-7a3.218,3.218,0,0,0-.884-1.907A3.607,3.607,0,0,0,39,72.657q-.83-.128-.831-.448,0-.362.682-.4a23.7,23.7,0,0,0,5.859-.938Z" transform="translate(-38.172 -70.867)" fill="#00416b"/>
        <path id="Path_5833" data-name="Path 5833" d="M61.861,97.119a6.652,6.652,0,0,1-5.773,3.025,4.733,4.733,0,0,1-3.376-1.151,3.955,3.955,0,0,1-1.225-3.026,4.968,4.968,0,0,1,.735-2.621A4.758,4.758,0,0,1,53.9,91.6a22.247,22.247,0,0,1,3.334-1.342q3.408-1.13,4.091-1.876a2.769,2.769,0,0,0,.682-1.942,4.452,4.452,0,0,0-.895-2.961A3.138,3.138,0,0,0,58.58,82.42a2.986,2.986,0,0,0-2.024.6,4.514,4.514,0,0,0-1.044,2.418q-.384,1.968-1.683,1.968a1.781,1.781,0,0,1-1.6-1.853A3.355,3.355,0,0,1,54,82.771a8.653,8.653,0,0,1,4.857-1.182,9.229,9.229,0,0,1,3.91.693A3.448,3.448,0,0,1,64.6,83.871a10.5,10.5,0,0,1,.373,3.456l-.128,5.632a18.905,18.905,0,0,0,.394,4.639q.394,1.376,1.46,1.376a3.871,3.871,0,0,0,.6-.064l.362-.043c.326,0,.49.119.49.356q0,.816-4.2.816a1.924,1.924,0,0,1-1.63-.565A4.607,4.607,0,0,1,61.861,97.119Zm0-8.309a9.521,9.521,0,0,1-2.9,2.024,12.045,12.045,0,0,0-3.217,2.195,3.643,3.643,0,0,0-.981,2.555,3.4,3.4,0,0,0,.8,2.28,2.513,2.513,0,0,0,1.992.938,4,4,0,0,0,2.323-.756,4.6,4.6,0,0,0,1.607-1.929,8.891,8.891,0,0,0,.523-3.473Q62.011,90.921,61.861,88.811Z" transform="translate(-37.915 -70.66)" fill="#00416b"/>
        <path id="Path_5834" data-name="Path 5834" d="M78.972,95.622q3.654-8.521,3.654-10.013a3.064,3.064,0,0,0-.394-1.459,2.692,2.692,0,0,0-.767-.981,2.311,2.311,0,0,0-1.119-.287q-.511-.021-.511-.383,0-.469.553-.469l3.771-.086q2.726,0,3.067.054c.227.036.341.152.341.352q0,.277-.7.511-1.278.448-1.278,1.235a7.265,7.265,0,0,0,.394,1.4q.4,1.162,1.57,3.931l2.584,5.923q1.445-3.644,2.614-7.212a26.321,26.321,0,0,0,1.168-4.116q0-1.095-1.364-1.221-.787-.084-.788-.489,0-.3.682-.352T95.3,81.9a15.616,15.616,0,0,1,1.833.063c.269.043.4.157.4.341s-.284.4-.852.661a3.678,3.678,0,0,0-1.6,1.222,12.068,12.068,0,0,0-1.214,3.166q-.553,1.96-2.445,6.946L89.39,99.755c-.114.312-.263.469-.449.469s-.4-.356-.661-1.065q-.277-.7-1.831-4.352-2.128-4.884-3.107-7.592l-.142.119q-.616,1.833-1.829,4.837L79.162,97.6a16.775,16.775,0,0,1-1.139,2.556.467.467,0,0,1-.266.128q-.278,0-.64-.916Q75.368,94.9,73.9,91.426L71.463,85.8a8.362,8.362,0,0,0-1.374-2.474,1.833,1.833,0,0,0-1.012-.38c-.483-.057-.725-.192-.725-.406q0-.468.959-.468l4.836-.086,2,.043c.412,0,.618.106.618.32q0,.425-.831.553-1.534.252-1.534,1.034Q74.4,85.055,78.972,95.622Z" transform="translate(-37.589 -70.654)" fill="#00416b"/>
        <path id="Path_5835" data-name="Path 5835" d="M113.176,94.216a5.706,5.706,0,0,1-1.829,4.242,6.016,6.016,0,0,1-4.338,1.776,8.714,8.714,0,0,1-3.551-.959,5.942,5.942,0,0,0-1.339-.511.772.772,0,0,0-.638.447q-.349.6-.652.6-.261,0-.326-.608t-.087-2.758q-.021-1.855-.064-2.386c0-.526.139-.788.416-.788q.24,0,.372.4a12,12,0,0,0,2.322,4.122,4.553,4.553,0,0,0,3.511,1.693A3.924,3.924,0,0,0,109.5,98.6a2.909,2.909,0,0,0,1.1-2.4q0-2.344-4.06-4.155a38.174,38.174,0,0,1-3.721-1.823,4.058,4.058,0,0,1-1.467-1.557,4.4,4.4,0,0,1-.531-2.132,4.729,4.729,0,0,1,1.665-3.68,5.856,5.856,0,0,1,4.034-1.482,8.434,8.434,0,0,1,3.843,1.087,1.369,1.369,0,0,0,.6.17c.143,0,.3-.117.47-.352s.3-.33.394-.33a.327.327,0,0,1,.289.161A8.984,8.984,0,0,1,112.345,84q.127,1.722.127,2.834c0,.457-.12.684-.362.684q-.32,0-.512-.616a15.4,15.4,0,0,0-1.022-2.184,4.306,4.306,0,0,0-1.864-2.058,4.909,4.909,0,0,0-1.992-.446,4.046,4.046,0,0,0-2.514.744,2.406,2.406,0,0,0-.575,3.275,4.449,4.449,0,0,0,.756.894,37.475,37.475,0,0,0,4.058,1.968,17.635,17.635,0,0,1,3.025,1.605,4.458,4.458,0,0,1,1.214,1.521A4.319,4.319,0,0,1,113.176,94.216Z" transform="translate(-36.971 -70.664)" fill="#00416b"/>
        <path id="Path_5836" data-name="Path 5836" d="M123.133,83.621q-.3,4.715-.3,9.26,0,3.5.834,4.566a2.863,2.863,0,0,0,2.4,1.066,4.916,4.916,0,0,0,2.5-.831,2.046,2.046,0,0,1,.6-.3c.184,0,.276.1.276.3q0,.512-1.517,1.62a6.133,6.133,0,0,1-3.716,1.108,3.765,3.765,0,0,1-3.269-1.515,7.733,7.733,0,0,1-1.09-4.523q0-3.136.383-10.751-.148-.043-2.023-.149l-1.278-.086q-.469-.021-.469-.318c0-.185.176-.333.531-.446a14.325,14.325,0,0,0,2.929-1.869,6.131,6.131,0,0,0,2.4-4.377c.058-.5.219-.744.481-.744s.392.2.392.6c0,.127-.007.262-.02.4q-.064.829-.064,1.911l.021,3.312,4.665-.063q1.193,0,1.235.276a1.764,1.764,0,0,1-.319,1.235Q127.607,83.3,123.133,83.621Z" transform="translate(-36.659 -70.775)" fill="#00416b"/>
        <path id="Path_5837" data-name="Path 5837" d="M160.38,86.388a11.856,11.856,0,0,1,2.865-3.583,5.12,5.12,0,0,1,3.206-1.195,2.783,2.783,0,0,1,2.024.842,2.614,2.614,0,0,1,.852,1.906q0,2.024-1.726,2.024-.81,0-1.364-1.129-.682-1.427-1.81-1.427a3.143,3.143,0,0,0-2.195,1.195,6.1,6.1,0,0,0-1.513,2.613,28.476,28.476,0,0,0-.383,5.942q0,4.139.34,4.747t1.747.779q.384.043.383.3,0,.446-1,.447h-6.8c-.483,0-.725-.12-.725-.363q0-.339.959-.383,1.342-.084,1.661-.832a24.054,24.054,0,0,0,.319-5.5,65.61,65.61,0,0,0-.287-8.384q-.287-1.408-2.141-1.493-.768-.043-.768-.4a.314.314,0,0,1,.16-.287,10.109,10.109,0,0,1,1.95-.2l3.919-.213Q160.209,82.933,160.38,86.388Z" transform="translate(-35.933 -70.659)" fill="#00416b"/>
        <path id="Path_5838" data-name="Path 5838" d="M174.853,89.9c-.058.725-.086,1.3-.086,1.726a7.6,7.6,0,0,0,1.783,5.113,5.57,5.57,0,0,0,4.409,2.088,6.875,6.875,0,0,0,4.761-2.045c.426-.383.7-.575.812-.575q.341,0,.363.553a6.361,6.361,0,0,1-2.771,2.514,9.306,9.306,0,0,1-4.369,1.023,8,8,0,0,1-5.99-2.546,8.917,8.917,0,0,1-2.45-6.445,9.632,9.632,0,0,1,2.7-6.966,7.968,7.968,0,0,1,5.762-2.791,7.409,7.409,0,0,1,5.2,2.183,6.819,6.819,0,0,1,2.322,5.124,1.23,1.23,0,0,1-.139.661q-.139.213-1.632.213Zm0-1.108q2.775.128,5.381.128l1.131-.064a3.75,3.75,0,0,0,1.964-.5,1.794,1.794,0,0,0,.684-1.608,4.458,4.458,0,0,0-1.228-3.121,3.813,3.813,0,0,0-2.893-1.331,4.411,4.411,0,0,0-3.065,1.523A8.435,8.435,0,0,0,174.853,88.79Z" transform="translate(-35.599 -70.661)" fill="#00416b"/>
      </g>
    </g>
    <g id="Group_465" data-name="Group 465" transform="translate(131.159 75.72)">
      <path id="Path_5839" data-name="Path 5839" d="M146.84,90.531a.638.638,0,0,0-.572.221c-.323.507.669,1.726,2.215,2.718a6.147,6.147,0,0,0,2.823,1.1.647.647,0,0,0,.573-.219c.329-.509-.667-1.726-2.218-2.722a6.124,6.124,0,0,0-2.82-1.1" transform="translate(-129.072 -75.34)" fill="#ff8487"/>
      <path id="Path_5840" data-name="Path 5840" d="M134.712,82.167c1.549.994,2.542,2.209,2.213,2.72s-1.843.113-3.392-.881-2.545-2.213-2.22-2.722,1.846-.11,3.4.883" transform="translate(-129.361 -75.523)" fill="#fb3b50"/>
      <path id="Path_5841" data-name="Path 5841" d="M147.865,77.649c-.589,0-1.625.928-2.5,2.279-.991,1.548-1.381,3.069-.878,3.4a.4.4,0,0,0,.228.061c.588,0,1.627-.928,2.493-2.276.993-1.553,1.386-3.074.881-3.4a.434.434,0,0,0-.228-.061" transform="translate(-129.109 -75.589)" fill="#ff646c"/>
      <path id="Path_5842" data-name="Path 5842" d="M138.273,92.606c-.588,0-1.627.931-2.493,2.274-.993,1.554-1.386,3.075-.881,3.4a.424.424,0,0,0,.231.061c.588,0,1.622-.93,2.49-2.279.992-1.549,1.387-3.072.883-3.4a.418.418,0,0,0-.23-.061" transform="translate(-129.295 -75.3)" fill="#ffa2a1"/>
      <path id="Path_5843" data-name="Path 5843" d="M135.561,77.378a.4.4,0,0,0-.219.059c-.514.313-.149,1.843.807,3.414.841,1.379,1.864,2.333,2.45,2.333a.421.421,0,0,0,.217-.057c.518-.315.157-1.841-.8-3.416-.843-1.377-1.864-2.333-2.452-2.333" transform="translate(-129.286 -75.594)" fill="#fd4757"/>
      <path id="Path_5844" data-name="Path 5844" d="M141.6,75.628c-.6,0-1.111,1.478-1.149,3.315s.426,3.34,1.029,3.355h.007c.6,0,1.116-1.478,1.152-3.315s-.426-3.343-1.034-3.355Z" transform="translate(-129.183 -75.628)" fill="#ff5863"/>
      <path id="Path_5845" data-name="Path 5845" d="M143.865,93.011a.421.421,0,0,0-.263.077c-.485.359.014,1.851,1.111,3.327.935,1.257,2,2.1,2.6,2.1a.44.44,0,0,0,.268-.08c.478-.358-.016-1.846-1.115-3.327-.935-1.257-2.006-2.1-2.6-2.1" transform="translate(-129.126 -75.292)" fill="#ff8f8f"/>
      <path id="Path_5846" data-name="Path 5846" d="M141.044,93.415a.2.2,0,0,0-.034,0c-.6.048-.962,1.573-.811,3.414.143,1.806.734,3.235,1.327,3.235l.029,0c.6-.054.963-1.579.816-3.414-.146-1.805-.737-3.234-1.327-3.234" transform="translate(-129.189 -75.284)" fill="#ff9898"/>
      <path id="Path_5847" data-name="Path 5847" d="M135.926,89.945a6.162,6.162,0,0,0-2.813,1.064c-1.566.972-2.573,2.175-2.253,2.688a.65.65,0,0,0,.59.228,6.227,6.227,0,0,0,2.816-1.061c1.566-.974,2.573-2.175,2.255-2.689a.654.654,0,0,0-.6-.23" transform="translate(-129.37 -75.351)" fill="#ffacab"/>
      <path id="Path_5848" data-name="Path 5848" d="M133.041,86.448c-.113,0-.23,0-.346.007-1.844.062-3.32.6-3.3,1.206.021.565,1.345.987,3.027.987.113,0,.228,0,.344-.007,1.839-.061,3.315-.6,3.294-1.2-.019-.563-1.342-.99-3.021-.99" transform="translate(-129.397 -75.419)" fill="#f92f49"/>
      <path id="Path_5849" data-name="Path 5849" d="M151.5,81.6a6.144,6.144,0,0,0-2.806,1.064c-1.568.972-2.581,2.173-2.261,2.686a.66.66,0,0,0,.594.228,6.249,6.249,0,0,0,2.819-1.061c1.556-.972,2.572-2.173,2.249-2.687a.658.658,0,0,0-.6-.23" transform="translate(-129.069 -75.512)" fill="#ff7176"/>
      <path id="Path_5850" data-name="Path 5850" d="M150.761,86.78c-.113,0-.231,0-.349.005-1.841.061-3.313.6-3.3,1.2.017.565,1.344.989,3.028.989.11,0,.223,0,.338-.005,1.844-.065,3.317-.6,3.3-1.21-.016-.56-1.34-.982-3.018-.982" transform="translate(-129.054 -75.412)" fill="#ff7a7e"/>
    </g>
  </g>
</svg>
