<svg xmlns="http://www.w3.org/2000/svg" width="140.972" height="39.933" viewBox="0 0 140.972 39.933">
  <g id="Group_999" data-name="Group 999" transform="translate(-38.172 -70.867)">
    <g id="Group_462" data-name="Group 462" transform="translate(38.305 104.611)">
      <path id="Path_5808" data-name="Path 5808" d="M41.506,112.665h-.267q-.213-.685-.672-1.869l-.858-2.21a10.532,10.532,0,0,0-.555-1.28,1.024,1.024,0,0,0-.307-.345.976.976,0,0,0-.422-.113q-.114-.01-.114-.082c0-.058.038-.086.114-.086H40.8q.222,0,.222.077c0,.067-.048.1-.145.1-.4,0-.6.171-.6.512a2.228,2.228,0,0,0,.054.39,5.6,5.6,0,0,0,.189.658q.135.389.576,1.6t.566,1.485l.971-2.69a6.183,6.183,0,0,0,.418-1.439c0-.317-.2-.494-.59-.526-.079-.007-.118-.035-.118-.087a.063.063,0,0,1,.044-.065,1.1,1.1,0,0,1,.252-.016h1.516a1.458,1.458,0,0,1,.247.011.059.059,0,0,1,.043.065c0,.055-.059.092-.176.109a.808.808,0,0,0-.512.248,2.99,2.99,0,0,0-.326.472q-.156.274-.837,2.184Q42.355,110.442,41.506,112.665Z" transform="translate(-38.312 -106.499)" fill="#597593"/>
      <path id="Path_5809" data-name="Path 5809" d="M45.552,106.575l.827.018,1.268-.018q.227,0,.227.091c0,.045-.041.074-.123.085a.708.708,0,0,0-.628.364A9.937,9.937,0,0,0,47,109.33q0,.7.036,1.583a7.8,7.8,0,0,0,.082,1.053.535.535,0,0,0,.172.28.951.951,0,0,0,.472.155q.114.013.114.085t-.105.082l-1.127-.009-.96.014c-.105,0-.158-.031-.158-.091s.042-.1.126-.1q.423-.009.5-.281a10.919,10.919,0,0,0,.073-1.737q0-1.417-.026-2.292a2.819,2.819,0,0,0-.147-1.07.621.621,0,0,0-.463-.245c-.085-.014-.127-.049-.127-.1S45.487,106.575,45.552,106.575Z" transform="translate(-38.689 -106.494)" fill="#597593"/>
      <path id="Path_5810" data-name="Path 5810" d="M52.407,109.515a2.34,2.34,0,0,1,.876.571,2.041,2.041,0,0,1,.364.92,2.241,2.241,0,0,0,.423,1.1,1,1,0,0,0,.71.3c.081.006.122.036.122.088s-.047.081-.141.081a7.726,7.726,0,0,1-1.54-.084q-.27-.084-.4-.928a7.066,7.066,0,0,0-.257-1.2,1.144,1.144,0,0,0-.426-.581,1.636,1.636,0,0,0-.914-.2,3.2,3.2,0,0,0-.535.05q-.023.286-.023.593c0,.776.01,1.279.031,1.506a.769.769,0,0,0,.193.5.777.777,0,0,0,.537.166c.109,0,.164.029.164.08s-.067.088-.2.088H49.144c-.131,0-.2-.029-.2-.088s.051-.08.154-.08a.811.811,0,0,0,.478-.1.686.686,0,0,0,.211-.324,2.772,2.772,0,0,0,.077-.8l-.009-.925,0-1.41a13.1,13.1,0,0,0-.048-1.428.83.83,0,0,0-.17-.47,1.147,1.147,0,0,0-.567-.188c-.064-.009-.1-.035-.1-.077s.063-.073.19-.073l2.686-.059a2.475,2.475,0,0,1,1.613.425,1.341,1.341,0,0,1,.3,1.755,1.277,1.277,0,0,1-.478.467A5.6,5.6,0,0,1,52.407,109.515Zm-1.719-.116a6.553,6.553,0,0,0,1.306-.122,1.391,1.391,0,0,0,.742-.458,1.238,1.238,0,0,0,.307-.839,1.3,1.3,0,0,0-.341-.894,1.39,1.39,0,0,0-1.088-.381,4.209,4.209,0,0,0-.9.109q-.054,1.248-.054,1.987Q50.655,109.055,50.687,109.4Z" transform="translate(-38.873 -106.492)" fill="#597593"/>
      <path id="Path_5811" data-name="Path 5811" d="M57.775,106.871c-.236-.011-.4-.018-.5-.018a2.039,2.039,0,0,0-1.421.41,1.585,1.585,0,0,0-.513.728c-.015.076-.056.114-.121.114a.118.118,0,0,1-.086-.044,12.365,12.365,0,0,1,.177-1.458c.145,0,.237,0,.277,0q.354,0,.948.036.641.037,1.96.037,1.353,0,1.761-.032c.248-.024.589-.036,1.021-.036a5.888,5.888,0,0,1,.073.68c.018.27.036.459.054.567a.657.657,0,0,1,0,.077c0,.073-.031.109-.095.109a.126.126,0,0,1-.1-.039,2.032,2.032,0,0,1-.175-.256,2.094,2.094,0,0,0-.49-.556,1.325,1.325,0,0,0-.567-.243,10.469,10.469,0,0,0-1.267-.073q-.055.685-.055,1.566a24.548,24.548,0,0,0,.125,3.435q.124.521.891.522c.124,0,.186.026.186.078s-.059.09-.176.09H56.9c-.073,0-.109-.028-.109-.086s.071-.086.213-.086a.78.78,0,0,0,.833-.748q.034-.345.034-1.992Q57.871,108.242,57.775,106.871Z" transform="translate(-39.199 -106.495)" fill="#597593"/>
      <path id="Path_5812" data-name="Path 5812" d="M62.516,106.623h2.273c.131,0,.2.027.2.081s-.048.086-.145.1a.788.788,0,0,0-.476.177.99.99,0,0,0-.234.512,9.644,9.644,0,0,0-.079,1.574,15.892,15.892,0,0,0,.083,2.005,1.307,1.307,0,0,0,.527.888,1.981,1.981,0,0,0,1.2.329,2.051,2.051,0,0,0,1.216-.3,1.429,1.429,0,0,0,.542-.9,16.386,16.386,0,0,0,.125-2.6,2.789,2.789,0,0,0-.213-1.35.71.71,0,0,0-.631-.32c-.112,0-.168-.031-.168-.095s.074-.091.222-.091h1.816c.081,0,.121.03.121.091,0,.042-.032.067-.1.077a.852.852,0,0,0-.506.218,1.062,1.062,0,0,0-.21.608,12.158,12.158,0,0,0-.05,1.293,17.4,17.4,0,0,1-.08,1.81,2.332,2.332,0,0,1-.343,1.109,1.81,1.81,0,0,1-.792.59,3.325,3.325,0,0,1-1.3.225,3.246,3.246,0,0,1-1.345-.253,1.436,1.436,0,0,1-.753-.667,3.014,3.014,0,0,1-.2-1.242l.018-1.259a8.185,8.185,0,0,0-.143-2.05.6.6,0,0,0-.615-.384c-.1,0-.154-.025-.154-.075S62.389,106.623,62.516,106.623Z" transform="translate(-39.578 -106.496)" fill="#597593"/>
      <path id="Path_5813" data-name="Path 5813" d="M71.926,106.5h.209q.507,1.04,1.4,3.553a16.373,16.373,0,0,0,.789,1.976.825.825,0,0,0,.687.406q.151.013.151.1c0,.043-.027.063-.078.063l-.063,0c-.279-.024-.632-.036-1.062-.036q-.989,0-1.27.031c-.094,0-.14-.027-.14-.081s.034-.064.1-.073a1.269,1.269,0,0,0,.532-.132.331.331,0,0,0,.148-.3,4.349,4.349,0,0,0-.277-.976l-.267-.781q-.236,0-2.111.027a6.638,6.638,0,0,0-.472,1.586.443.443,0,0,0,.234.413,1.032,1.032,0,0,0,.459.148c.113.009.169.043.169.1,0,.024-.018.045-.055.065q-.726-.031-.875-.031c-.509,0-.851.007-1.026.018-.1,0-.145-.027-.145-.081s.043-.079.127-.091a1.03,1.03,0,0,0,.8-.708q.277-.639.863-2.3Q71.29,107.882,71.926,106.5Zm-.181.99a22.84,22.84,0,0,0-.986,2.5q.467-.023.672-.023l1.275.023q-.168-.472-.472-1.252Q71.863,107.809,71.745,107.488Z" transform="translate(-39.928 -106.489)" fill="#597593"/>
      <path id="Path_5814" data-name="Path 5814" d="M81.078,112.583l-.254.009c-.112,0-.315,0-.609-.015s-.9-.016-1.83-.016H77.232c-.044,0-.2.008-.464.023s-.428.023-.486.023c-.23,0-.345-.03-.345-.091s.045-.074.135-.077a1,1,0,0,0,.613-.189.86.86,0,0,0,.237-.463,11.77,11.77,0,0,0,.063-1.633l0-1.626a5.871,5.871,0,0,0-.07-1.1.791.791,0,0,0-.291-.478.931.931,0,0,0-.5-.189c-.1-.009-.145-.042-.145-.1s.044-.083.131-.083c.022,0,.061,0,.118,0q.722.047,1.688.046l.8-.014q.122,0,.122.091c0,.054-.044.081-.131.081a1.04,1.04,0,0,0-.538.128.652.652,0,0,0-.286.292,1.927,1.927,0,0,0-.07.647L77.784,110l.009,1.2a3.418,3.418,0,0,0,.047.726.636.636,0,0,0,.2.3.826.826,0,0,0,.545.135l.813-.027a1.883,1.883,0,0,0,1.117-.608,3.093,3.093,0,0,0,.657-.935c.033-.079.074-.117.122-.117s.077.036.077.109-.044.387-.13.909S81.1,112.507,81.078,112.583Z" transform="translate(-40.296 -106.494)" fill="#597593"/>
      <path id="Path_5815" data-name="Path 5815" d="M87.3,106.5h.209q.507,1.04,1.4,3.553a16.375,16.375,0,0,0,.789,1.976.825.825,0,0,0,.687.406q.151.013.151.1c0,.043-.027.063-.078.063l-.063,0c-.279-.024-.632-.036-1.062-.036q-.989,0-1.27.031c-.094,0-.141-.027-.141-.081s.035-.064.105-.073a1.269,1.269,0,0,0,.532-.132.331.331,0,0,0,.148-.3,4.35,4.35,0,0,0-.277-.976l-.267-.781q-.236,0-2.111.027a6.66,6.66,0,0,0-.473,1.586.445.445,0,0,0,.234.413,1.04,1.04,0,0,0,.46.148c.112.009.169.043.169.1,0,.024-.018.045-.055.065q-.726-.031-.876-.031c-.508,0-.85.007-1.025.018-.1,0-.145-.027-.145-.081s.043-.079.127-.091a1.031,1.031,0,0,0,.8-.708q.277-.639.863-2.3Q86.665,107.882,87.3,106.5Zm-.181.99a22.65,22.65,0,0,0-.986,2.5q.468-.023.672-.023l1.275.023q-.168-.472-.472-1.252Q87.238,107.809,87.12,107.488Z" transform="translate(-40.739 -106.489)" fill="#597593"/>
      <path id="Path_5816" data-name="Path 5816" d="M94.734,106.942a.638.638,0,0,0,.164-.255c.024-.072.059-.109.1-.109a.128.128,0,0,1,.081.046q.031.163.091.657l.109.853c0,.055-.033.082-.1.082-.036,0-.068-.03-.095-.091a2.5,2.5,0,0,0-.712-.989,1.583,1.583,0,0,0-1.031-.39,1.022,1.022,0,0,0-.828.332,1.076,1.076,0,0,0-.279.7.831.831,0,0,0,.305.694,4.473,4.473,0,0,0,1.251.545,5.2,5.2,0,0,1,1.046.422,1.733,1.733,0,0,1,.584.572,1.435,1.435,0,0,1,.236.789,1.735,1.735,0,0,1-.594,1.284,2.033,2.033,0,0,1-1.457.567,2.951,2.951,0,0,1-1.561-.486.568.568,0,0,0-.2.3c-.025.1-.063.145-.118.145s-.083-.063-.105-.187-.064-.71-.131-1.76c.011-.037.044-.055.095-.055s.082.033.109.1q.7,1.756,1.951,1.756a1.272,1.272,0,0,0,.974-.375,1.221,1.221,0,0,0,.351-.86,1.083,1.083,0,0,0-.188-.617,1.424,1.424,0,0,0-.5-.454,5.725,5.725,0,0,0-.982-.386,4.02,4.02,0,0,1-1.173-.524,1.555,1.555,0,0,1-.456-.559,1.4,1.4,0,0,1-.146-.6,1.382,1.382,0,0,1,.547-1.07,1.993,1.993,0,0,1,1.341-.467,2.252,2.252,0,0,1,.628.095A3.409,3.409,0,0,1,94.734,106.942Z" transform="translate(-41.116 -106.493)" fill="#597593"/>
      <path id="Path_5817" data-name="Path 5817" d="M99.895,106.942a.645.645,0,0,0,.163-.255c.024-.072.059-.109.1-.109a.126.126,0,0,1,.081.046c.021.109.052.328.091.657l.109.853q0,.082-.1.082c-.036,0-.068-.03-.1-.091a2.479,2.479,0,0,0-.712-.989,1.581,1.581,0,0,0-1.03-.39,1.024,1.024,0,0,0-.829.332,1.075,1.075,0,0,0-.279.7.833.833,0,0,0,.3.694,4.482,4.482,0,0,0,1.252.545,5.227,5.227,0,0,1,1.046.422,1.751,1.751,0,0,1,.584.572,1.435,1.435,0,0,1,.236.789,1.736,1.736,0,0,1-.595,1.284,2.031,2.031,0,0,1-1.457.567,2.945,2.945,0,0,1-1.56-.486.57.57,0,0,0-.2.3c-.025.1-.063.145-.118.145s-.083-.063-.1-.187-.065-.71-.132-1.76c.012-.037.045-.055.1-.055s.081.033.109.1q.7,1.756,1.95,1.756a1.27,1.27,0,0,0,.974-.375,1.222,1.222,0,0,0,.352-.86,1.083,1.083,0,0,0-.189-.617,1.421,1.421,0,0,0-.5-.454,5.741,5.741,0,0,0-.983-.386,4.045,4.045,0,0,1-1.173-.524,1.565,1.565,0,0,1-.456-.559,1.4,1.4,0,0,1-.146-.6,1.383,1.383,0,0,1,.548-1.07,1.993,1.993,0,0,1,1.34-.467,2.264,2.264,0,0,1,.629.095A3.455,3.455,0,0,1,99.895,106.942Z" transform="translate(-41.388 -106.493)" fill="#597593"/>
      <path id="Path_5818" data-name="Path 5818" d="M101.853,109.548a3.006,3.006,0,0,1,.372-1.345,3.151,3.151,0,0,1,1.087-1.21,2.844,2.844,0,0,1,1.613-.476,2.688,2.688,0,0,1,2.076.9,2.959,2.959,0,0,1,.818,2.051,3.14,3.14,0,0,1-.907,2.2,2.88,2.88,0,0,1-2.183.974,2.744,2.744,0,0,1-2.049-.854A3.077,3.077,0,0,1,101.853,109.548Zm1.012-.147a5.44,5.44,0,0,0,.226,1.518,2.05,2.05,0,0,0,.711,1.131,1.741,1.741,0,0,0,1.038.351,1.624,1.624,0,0,0,1.43-.87,3.754,3.754,0,0,0,.537-2.014,3.469,3.469,0,0,0-.548-1.946,1.651,1.651,0,0,0-1.432-.837,1.5,1.5,0,0,0-1.11.446,2.677,2.677,0,0,0-.649,1.07A3.718,3.718,0,0,0,102.865,109.4Z" transform="translate(-41.662 -106.49)" fill="#597593"/>
      <path id="Path_5819" data-name="Path 5819" d="M113.707,106.992a1.441,1.441,0,0,0,.287-.3c.029-.072.073-.109.131-.109s.094.055.1.163l.1,1.584a.663.663,0,0,1-.011.166c-.008.02-.029.03-.066.03s-.1-.065-.153-.2a3.1,3.1,0,0,0-.835-1.184,1.775,1.775,0,0,0-1.17-.458,1.631,1.631,0,0,0-1.017.357,2.3,2.3,0,0,0-.719,1.015,3.894,3.894,0,0,0-.256,1.418,3.05,3.05,0,0,0,.71,2.094,2.084,2.084,0,0,0,1.586.805,1.775,1.775,0,0,0,1.094-.376,2.551,2.551,0,0,0,.753-.871c.045-.091.093-.136.141-.136.066,0,.1.036.1.109a1.513,1.513,0,0,1-.345.577,2.543,2.543,0,0,1-.906.721,2.683,2.683,0,0,1-1.2.278,2.948,2.948,0,0,1-2.524-1.452,3.1,3.1,0,0,1-.4-1.6,3.352,3.352,0,0,1,.389-1.62,2.771,2.771,0,0,1,1.091-1.122,2.913,2.913,0,0,1,1.454-.4,2.881,2.881,0,0,1,.818.124A3.948,3.948,0,0,1,113.707,106.992Z" transform="translate(-42.045 -106.489)" fill="#597593"/>
      <path id="Path_5820" data-name="Path 5820" d="M115.675,106.575l.827.018,1.268-.018q.227,0,.227.091,0,.068-.122.085a.71.71,0,0,0-.629.364,10.035,10.035,0,0,0-.124,2.215q0,.7.036,1.583a8.055,8.055,0,0,0,.081,1.053.541.541,0,0,0,.172.28.955.955,0,0,0,.473.155c.076.009.113.037.113.085s-.035.082-.1.082l-1.128-.009-.959.014c-.106,0-.159-.031-.159-.091s.043-.1.127-.1q.422-.009.494-.281a10.918,10.918,0,0,0,.073-1.737q0-1.417-.025-2.292a2.832,2.832,0,0,0-.148-1.07.617.617,0,0,0-.462-.245c-.085-.014-.128-.049-.128-.1S115.611,106.575,115.675,106.575Z" transform="translate(-42.386 -106.494)" fill="#597593"/>
      <path id="Path_5821" data-name="Path 5821" d="M121.731,106.5h.209q.506,1.04,1.4,3.553a16.206,16.206,0,0,0,.789,1.976.825.825,0,0,0,.687.406c.1.009.151.042.151.1,0,.043-.027.063-.078.063l-.063,0q-.418-.036-1.062-.036-.989,0-1.271.031c-.093,0-.14-.027-.14-.081s.035-.064.1-.073a1.279,1.279,0,0,0,.533-.132.331.331,0,0,0,.148-.3,4.35,4.35,0,0,0-.277-.976l-.267-.781q-.236,0-2.111.027a6.66,6.66,0,0,0-.473,1.586.443.443,0,0,0,.234.413,1.04,1.04,0,0,0,.46.148c.112.009.168.043.168.1,0,.024-.017.045-.054.065q-.726-.031-.876-.031c-.508,0-.85.007-1.025.018-.1,0-.145-.027-.145-.081s.042-.079.127-.091a1.03,1.03,0,0,0,.8-.708q.276-.639.863-2.3Q121.1,107.882,121.731,106.5Zm-.181.99a22.652,22.652,0,0,0-.986,2.5q.467-.023.672-.023l1.275.023q-.168-.472-.472-1.252Q121.668,107.809,121.55,107.488Z" transform="translate(-42.554 -106.489)" fill="#597593"/>
      <path id="Path_5822" data-name="Path 5822" d="M127.625,106.871c-.236-.011-.4-.018-.5-.018a2.042,2.042,0,0,0-1.421.41,1.585,1.585,0,0,0-.513.728c-.014.076-.055.114-.121.114a.118.118,0,0,1-.086-.044,12.572,12.572,0,0,1,.177-1.458c.146,0,.238,0,.278,0q.354,0,.947.036.641.037,1.961.037,1.353,0,1.761-.032.372-.036,1.02-.036a5.89,5.89,0,0,1,.073.68c.018.27.036.459.054.567a.5.5,0,0,1,0,.077c0,.073-.031.109-.095.109a.128.128,0,0,1-.1-.039,1.966,1.966,0,0,1-.174-.256,2.1,2.1,0,0,0-.491-.556,1.32,1.32,0,0,0-.567-.243,10.455,10.455,0,0,0-1.267-.073q-.055.685-.055,1.566a24.546,24.546,0,0,0,.125,3.435q.125.521.891.522c.124,0,.187.026.187.078s-.059.09-.177.09H126.75c-.073,0-.109-.028-.109-.086s.071-.086.213-.086a.78.78,0,0,0,.833-.748q.034-.345.034-1.992Q127.721,108.242,127.625,106.871Z" transform="translate(-42.882 -106.495)" fill="#597593"/>
      <path id="Path_5823" data-name="Path 5823" d="M137.066,106.676a13.327,13.327,0,0,1,.26,1.425c-.015.025-.031.036-.048.036a.1.1,0,0,1-.068-.036,3.711,3.711,0,0,0-.6-.766,1.857,1.857,0,0,0-.574-.375,3.111,3.111,0,0,0-.993-.111,5.625,5.625,0,0,0-1.049.077.278.278,0,0,0-.037.169c0,.021,0,.058-.008.113q-.046.362-.045,1.966,0,.068.009.19c.23.009.388.013.473.013a1.544,1.544,0,0,0,.829-.171,1.412,1.412,0,0,0,.447-.736c.021-.064.051-.1.09-.1.058,0,.086.044.086.132l-.019.182a7.254,7.254,0,0,0-.036.741q0,.62.023,1.114c0,.1-.027.154-.083.154-.041,0-.068-.036-.083-.109a1.193,1.193,0,0,0-.4-.771,2.431,2.431,0,0,0-1.325-.236q-.013.331-.013,1.07a6.377,6.377,0,0,0,.068,1.216.667.667,0,0,0,.327.411,1.838,1.838,0,0,0,.876.152,2.2,2.2,0,0,0,2.279-1.216c.043-.1.085-.15.131-.15s.071.033.071.1a.37.37,0,0,1-.022.117q-.028.087-.132.645-.023.118-.172.708l-1.9,0q-.409,0-1.2-.034t-1.4-.036a3.749,3.749,0,0,1-.638-.026.063.063,0,0,1-.027-.049q0-.091.151-.091a.71.71,0,0,0,.662-.267,3.189,3.189,0,0,0,.159-1.3l0-.929.013-.871q0-.261-.029-.995a7.885,7.885,0,0,0-.055-.836.411.411,0,0,0-.14-.206,1.431,1.431,0,0,0-.511-.207c-.079-.021-.117-.054-.117-.1s.052-.081.158-.081l.926.049q.492.024,2.41.024Q137.039,106.672,137.066,106.676Z" transform="translate(-43.26 -106.495)" fill="#597593"/>
      <path id="Path_5824" data-name="Path 5824" d="M144.486,106.942a.638.638,0,0,0,.164-.255c.024-.072.059-.109.1-.109a.128.128,0,0,1,.081.046q.031.163.091.657l.109.853c0,.055-.033.082-.1.082-.036,0-.068-.03-.095-.091a2.488,2.488,0,0,0-.712-.989,1.583,1.583,0,0,0-1.031-.39,1.022,1.022,0,0,0-.828.332,1.075,1.075,0,0,0-.279.7.83.83,0,0,0,.3.694,4.468,4.468,0,0,0,1.252.545,5.214,5.214,0,0,1,1.045.422,1.733,1.733,0,0,1,.584.572,1.434,1.434,0,0,1,.236.789,1.735,1.735,0,0,1-.594,1.284,2.031,2.031,0,0,1-1.457.567,2.951,2.951,0,0,1-1.561-.486.568.568,0,0,0-.2.3c-.025.1-.063.145-.118.145s-.083-.063-.1-.187-.065-.71-.132-1.76c.011-.037.044-.055.095-.055s.082.033.109.1q.7,1.756,1.951,1.756a1.27,1.27,0,0,0,.974-.375,1.221,1.221,0,0,0,.351-.86,1.083,1.083,0,0,0-.189-.617,1.424,1.424,0,0,0-.5-.454,5.725,5.725,0,0,0-.982-.386,4.02,4.02,0,0,1-1.173-.524,1.555,1.555,0,0,1-.456-.559,1.4,1.4,0,0,1-.146-.6,1.382,1.382,0,0,1,.547-1.07,1.993,1.993,0,0,1,1.341-.467,2.252,2.252,0,0,1,.628.095A3.41,3.41,0,0,1,144.486,106.942Z" transform="translate(-43.739 -106.493)" fill="#597593"/>
      <path id="Path_5825" data-name="Path 5825" d="M151.215,106.676a13.316,13.316,0,0,1,.26,1.425c-.015.025-.031.036-.048.036a.1.1,0,0,1-.068-.036,3.71,3.71,0,0,0-.6-.766,1.857,1.857,0,0,0-.574-.375,3.111,3.111,0,0,0-.993-.111,5.625,5.625,0,0,0-1.049.077.278.278,0,0,0-.037.169c0,.021,0,.058-.009.113q-.045.362-.045,1.966,0,.068.009.19c.23.009.388.013.473.013a1.542,1.542,0,0,0,.829-.171,1.412,1.412,0,0,0,.447-.736c.021-.064.051-.1.09-.1.058,0,.086.044.086.132l-.019.182q-.036.359-.036.741,0,.62.023,1.114c0,.1-.027.154-.083.154-.041,0-.068-.036-.083-.109a1.192,1.192,0,0,0-.4-.771,2.431,2.431,0,0,0-1.325-.236q-.013.331-.013,1.07a6.375,6.375,0,0,0,.068,1.216.667.667,0,0,0,.327.411,1.838,1.838,0,0,0,.876.152,2.2,2.2,0,0,0,2.279-1.216c.043-.1.085-.15.131-.15s.071.033.071.1a.369.369,0,0,1-.022.117q-.028.087-.132.645-.023.118-.172.708l-1.9,0q-.409,0-1.2-.034t-1.4-.036a3.748,3.748,0,0,1-.637-.026.063.063,0,0,1-.027-.049q0-.091.151-.091a.71.71,0,0,0,.662-.267,3.189,3.189,0,0,0,.159-1.3l0-.929.013-.871q0-.261-.029-.995a8.347,8.347,0,0,0-.054-.836.42.42,0,0,0-.141-.206,1.431,1.431,0,0,0-.511-.207c-.079-.021-.117-.054-.117-.1s.053-.081.158-.081l.925.049q.492.024,2.41.024Q151.188,106.672,151.215,106.676Z" transform="translate(-44.006 -106.495)" fill="#597593"/>
      <path id="Path_5826" data-name="Path 5826" d="M156.294,109.515a2.34,2.34,0,0,1,.876.571,2.041,2.041,0,0,1,.364.92,2.25,2.25,0,0,0,.423,1.1,1,1,0,0,0,.71.3c.081.006.122.036.122.088s-.047.081-.141.081a7.727,7.727,0,0,1-1.54-.084q-.27-.084-.4-.928a7.071,7.071,0,0,0-.257-1.2,1.144,1.144,0,0,0-.426-.581,1.636,1.636,0,0,0-.914-.2,3.2,3.2,0,0,0-.535.05q-.023.286-.023.593c0,.776.01,1.279.031,1.506a.769.769,0,0,0,.193.5.777.777,0,0,0,.537.166c.109,0,.164.029.164.08s-.067.088-.2.088h-2.246c-.131,0-.2-.029-.2-.088s.051-.08.154-.08a.811.811,0,0,0,.478-.1.679.679,0,0,0,.211-.324,2.772,2.772,0,0,0,.077-.8l-.009-.925,0-1.41a13.1,13.1,0,0,0-.048-1.428.83.83,0,0,0-.17-.47,1.147,1.147,0,0,0-.567-.188c-.063-.009-.1-.035-.1-.077s.063-.073.191-.073l2.686-.059a2.475,2.475,0,0,1,1.613.425,1.341,1.341,0,0,1,.3,1.755,1.27,1.27,0,0,1-.478.467A5.6,5.6,0,0,1,156.294,109.515Zm-1.719-.116a6.544,6.544,0,0,0,1.306-.122,1.4,1.4,0,0,0,.743-.458,1.242,1.242,0,0,0,.306-.839,1.3,1.3,0,0,0-.34-.894,1.394,1.394,0,0,0-1.089-.381,4.209,4.209,0,0,0-.9.109q-.054,1.248-.054,1.987Q154.542,109.055,154.574,109.4Z" transform="translate(-44.351 -106.492)" fill="#597593"/>
      <path id="Path_5827" data-name="Path 5827" d="M161.871,112.665H161.6q-.213-.685-.672-1.869l-.857-2.21a10.629,10.629,0,0,0-.556-1.28,1.033,1.033,0,0,0-.306-.345.981.981,0,0,0-.423-.113q-.114-.01-.114-.082c0-.058.038-.086.114-.086h2.378c.148,0,.223.026.223.077,0,.067-.048.1-.145.1-.4,0-.6.171-.6.512a2.253,2.253,0,0,0,.055.39,5.39,5.39,0,0,0,.188.658q.135.389.577,1.6t.565,1.485l.971-2.69a6.184,6.184,0,0,0,.418-1.439c0-.317-.2-.494-.59-.526-.079-.007-.117-.035-.117-.087a.063.063,0,0,1,.043-.065,1.1,1.1,0,0,1,.252-.016h1.516a1.458,1.458,0,0,1,.247.011.059.059,0,0,1,.044.065c0,.055-.06.092-.177.109a.8.8,0,0,0-.511.248,2.927,2.927,0,0,0-.327.472q-.156.274-.837,2.184Q162.719,110.442,161.871,112.665Z" transform="translate(-44.659 -106.499)" fill="#597593"/>
      <path id="Path_5828" data-name="Path 5828" d="M165.916,106.575l.827.018,1.268-.018q.227,0,.227.091,0,.068-.122.085c-.336.044-.546.164-.629.364a10.035,10.035,0,0,0-.124,2.215q0,.7.036,1.583a7.7,7.7,0,0,0,.081,1.053.535.535,0,0,0,.172.28.955.955,0,0,0,.472.155q.114.013.114.085c0,.055-.035.082-.1.082l-1.128-.009-.959.014c-.106,0-.159-.031-.159-.091s.043-.1.127-.1q.422-.009.494-.281a10.918,10.918,0,0,0,.073-1.737q0-1.417-.025-2.292a2.832,2.832,0,0,0-.148-1.07.619.619,0,0,0-.463-.245c-.084-.014-.127-.049-.127-.1S165.851,106.575,165.916,106.575Z" transform="translate(-45.035 -106.494)" fill="#597593"/>
      <path id="Path_5829" data-name="Path 5829" d="M174.063,106.992a1.453,1.453,0,0,0,.286-.3c.029-.072.074-.109.131-.109s.095.055.1.163l.1,1.584a.744.744,0,0,1-.01.166c-.009.02-.03.03-.066.03s-.1-.065-.154-.2a3.1,3.1,0,0,0-.836-1.184,1.775,1.775,0,0,0-1.17-.458,1.628,1.628,0,0,0-1.016.357,2.29,2.29,0,0,0-.72,1.015,3.894,3.894,0,0,0-.256,1.418,3.05,3.05,0,0,0,.71,2.094,2.087,2.087,0,0,0,1.587.805,1.775,1.775,0,0,0,1.093-.376,2.555,2.555,0,0,0,.754-.871c.045-.091.092-.136.14-.136.066,0,.1.036.1.109a1.507,1.507,0,0,1-.346.577,2.543,2.543,0,0,1-.906.721,2.68,2.68,0,0,1-1.2.278,2.948,2.948,0,0,1-2.524-1.452,3.1,3.1,0,0,1-.4-1.6,3.362,3.362,0,0,1,.388-1.62,2.767,2.767,0,0,1,1.092-1.122,2.907,2.907,0,0,1,1.453-.4,2.871,2.871,0,0,1,.818.124A3.974,3.974,0,0,1,174.063,106.992Z" transform="translate(-45.227 -106.489)" fill="#597593"/>
      <path id="Path_5830" data-name="Path 5830" d="M180.566,106.676a13.134,13.134,0,0,1,.259,1.425.059.059,0,0,1-.048.036.1.1,0,0,1-.067-.036,3.679,3.679,0,0,0-.6-.766,1.836,1.836,0,0,0-.574-.375,3.108,3.108,0,0,0-.992-.111,5.643,5.643,0,0,0-1.05.077.287.287,0,0,0-.036.169,1.079,1.079,0,0,1-.01.113q-.045.362-.045,1.966c0,.045,0,.109.009.19.23.009.387.013.472.013a1.54,1.54,0,0,0,.829-.171,1.412,1.412,0,0,0,.448-.736c.021-.064.051-.1.09-.1.057,0,.085.044.085.132l-.018.182a7.254,7.254,0,0,0-.036.741q0,.62.022,1.114c0,.1-.027.154-.082.154s-.069-.036-.083-.109a1.2,1.2,0,0,0-.4-.771,2.431,2.431,0,0,0-1.325-.236q-.014.331-.014,1.07a6.458,6.458,0,0,0,.068,1.216.665.665,0,0,0,.328.411,1.838,1.838,0,0,0,.876.152,2.2,2.2,0,0,0,2.279-1.216c.042-.1.085-.15.13-.15s.072.033.072.1a.348.348,0,0,1-.023.117q-.027.087-.132.645-.023.118-.172.708l-1.9,0q-.408,0-1.2-.034t-1.4-.036a3.73,3.73,0,0,1-.638-.026.063.063,0,0,1-.027-.049c0-.061.05-.091.15-.091a.708.708,0,0,0,.662-.267,3.183,3.183,0,0,0,.16-1.3l0-.929.013-.871q0-.261-.03-.995a8.036,8.036,0,0,0-.054-.836.411.411,0,0,0-.14-.206,1.439,1.439,0,0,0-.511-.207c-.079-.021-.118-.054-.118-.1s.053-.081.159-.081l.925.049q.49.024,2.41.024Q180.538,106.672,180.566,106.676Z" transform="translate(-45.554 -106.495)" fill="#597593"/>
      <path id="Path_5831" data-name="Path 5831" d="M185.484,106.942a.638.638,0,0,0,.164-.255c.024-.072.059-.109.1-.109a.128.128,0,0,1,.081.046q.031.163.091.657l.109.853c0,.055-.033.082-.1.082-.036,0-.068-.03-.095-.091a2.488,2.488,0,0,0-.712-.989,1.583,1.583,0,0,0-1.031-.39,1.022,1.022,0,0,0-.828.332,1.075,1.075,0,0,0-.279.7.83.83,0,0,0,.3.694,4.468,4.468,0,0,0,1.252.545,5.215,5.215,0,0,1,1.045.422,1.734,1.734,0,0,1,.583.572,1.435,1.435,0,0,1,.236.789,1.735,1.735,0,0,1-.594,1.284,2.031,2.031,0,0,1-1.457.567,2.951,2.951,0,0,1-1.561-.486.568.568,0,0,0-.2.3c-.025.1-.063.145-.118.145s-.083-.063-.1-.187-.065-.71-.132-1.76c.011-.037.044-.055.095-.055s.082.033.109.1q.7,1.756,1.951,1.756a1.27,1.27,0,0,0,.974-.375,1.221,1.221,0,0,0,.351-.86,1.082,1.082,0,0,0-.189-.617,1.423,1.423,0,0,0-.5-.454,5.724,5.724,0,0,0-.982-.386,4.02,4.02,0,0,1-1.173-.524,1.554,1.554,0,0,1-.456-.559,1.4,1.4,0,0,1-.146-.6,1.382,1.382,0,0,1,.547-1.07,1.993,1.993,0,0,1,1.341-.467,2.252,2.252,0,0,1,.628.095A3.409,3.409,0,0,1,185.484,106.942Z" transform="translate(-45.901 -106.493)" fill="#597593"/>
    </g>
    <g id="Group_464" data-name="Group 464" transform="translate(38.172 70.867)">
      <g id="Group_463" data-name="Group 463">
        <path id="Path_5832" data-name="Path 5832" d="M44.587,70.867q.06,2.492.1,4.986l-.039,12.325.079,5.975a4.693,4.693,0,0,0,.485,2.452,2.627,2.627,0,0,0,2.089.89c.422.04.634.166.634.376s-.171.337-.514.337c-.093,0-.2-.008-.337-.02q-2.039-.2-4.87-.2a17.442,17.442,0,0,0-2.772.175,3.839,3.839,0,0,1-.4.023q-.594,0-.594-.367,0-.345.534-.367a2.5,2.5,0,0,0,2.366-1.039A7.519,7.519,0,0,0,41.914,93l-.059-11.285q-.02-5.445-.149-6.5a2.991,2.991,0,0,0-.821-1.772,3.352,3.352,0,0,0-1.941-.91q-.772-.119-.772-.416,0-.337.634-.376a22.028,22.028,0,0,0,5.445-.871Z" transform="translate(-38.172 -70.867)" fill="#00416b"/>
        <path id="Path_5833" data-name="Path 5833" d="M61.127,96.022a6.182,6.182,0,0,1-5.365,2.812,4.4,4.4,0,0,1-3.137-1.069,3.675,3.675,0,0,1-1.139-2.812,4.617,4.617,0,0,1,.683-2.435,4.422,4.422,0,0,1,1.564-1.625,20.673,20.673,0,0,1,3.1-1.248,11.033,11.033,0,0,0,3.8-1.743,2.573,2.573,0,0,0,.634-1.8,4.137,4.137,0,0,0-.832-2.752,2.916,2.916,0,0,0-2.356-.983,2.775,2.775,0,0,0-1.881.557,4.2,4.2,0,0,0-.97,2.247q-.357,1.829-1.564,1.829a1.655,1.655,0,0,1-1.485-1.722,3.118,3.118,0,0,1,1.644-2.584,8.041,8.041,0,0,1,4.514-1.1,8.576,8.576,0,0,1,3.634.644,3.2,3.2,0,0,1,1.7,1.477,9.762,9.762,0,0,1,.347,3.211L63.9,92.155a17.569,17.569,0,0,0,.367,4.311q.367,1.279,1.356,1.279a3.6,3.6,0,0,0,.554-.06l.336-.04c.3,0,.456.111.456.331q0,.759-3.9.759a1.788,1.788,0,0,1-1.515-.525A4.282,4.282,0,0,1,61.127,96.022Zm0-7.721a8.848,8.848,0,0,1-2.692,1.881,11.194,11.194,0,0,0-2.99,2.039,3.385,3.385,0,0,0-.911,2.375,3.159,3.159,0,0,0,.743,2.119,2.336,2.336,0,0,0,1.851.871,3.717,3.717,0,0,0,2.159-.7,4.273,4.273,0,0,0,1.494-1.792,8.262,8.262,0,0,0,.486-3.227Q61.267,90.261,61.127,88.3Z" transform="translate(-38.874 -71.432)" fill="#00416b"/>
        <path id="Path_5834" data-name="Path 5834" d="M78.222,94.652q3.4-7.919,3.4-9.305a2.847,2.847,0,0,0-.367-1.356,2.5,2.5,0,0,0-.712-.911,2.148,2.148,0,0,0-1.04-.267q-.475-.02-.475-.356,0-.436.514-.436l3.5-.08q2.533,0,2.85.05c.211.033.317.141.317.327s-.218.33-.654.475q-1.188.416-1.188,1.148a6.751,6.751,0,0,0,.367,1.3q.368,1.08,1.459,3.653l2.4,5.5q1.343-3.386,2.429-6.7a24.462,24.462,0,0,0,1.086-3.825q0-1.017-1.267-1.135-.732-.078-.732-.455,0-.277.634-.327T93.4,81.9a14.513,14.513,0,0,1,1.7.059c.25.04.376.146.376.317s-.264.376-.792.614A3.417,3.417,0,0,0,93.2,84.029a11.215,11.215,0,0,0-1.128,2.942q-.514,1.822-2.273,6.455l-1.9,5.068c-.106.29-.244.436-.417.436s-.376-.331-.614-.99q-.257-.654-1.7-4.044-1.978-4.538-2.887-7.055l-.132.111q-.573,1.7-1.7,4.495L78.4,96.494A15.589,15.589,0,0,1,77.34,98.87a.434.434,0,0,1-.247.119q-.259,0-.595-.852Q74.872,93.98,73.5,90.752l-2.26-5.227a7.771,7.771,0,0,0-1.277-2.3,1.7,1.7,0,0,0-.941-.353c-.449-.053-.674-.178-.674-.377q0-.435.891-.435l4.494-.08,1.861.04c.383,0,.574.1.574.3q0,.4-.772.514-1.425.234-1.426.961Q73.975,84.832,78.222,94.652Z" transform="translate(-39.763 -71.449)" fill="#00416b"/>
        <path id="Path_5835" data-name="Path 5835" d="M112.27,93.309a5.3,5.3,0,0,1-1.7,3.943,5.59,5.59,0,0,1-4.032,1.65,8.1,8.1,0,0,1-3.3-.891,5.522,5.522,0,0,0-1.245-.475.717.717,0,0,0-.593.416q-.324.554-.606.554-.243,0-.3-.565t-.081-2.563q-.02-1.724-.06-2.218c0-.489.129-.732.386-.732q.223,0,.346.376a11.15,11.15,0,0,0,2.158,3.831,4.232,4.232,0,0,0,3.262,1.573,3.647,3.647,0,0,0,2.345-.821,2.7,2.7,0,0,0,1.025-2.227q0-2.178-3.773-3.861a35.473,35.473,0,0,1-3.458-1.694,3.771,3.771,0,0,1-1.363-1.446,4.088,4.088,0,0,1-.494-1.982,4.395,4.395,0,0,1,1.547-3.42,5.442,5.442,0,0,1,3.749-1.377,7.838,7.838,0,0,1,3.571,1.01,1.272,1.272,0,0,0,.555.158c.133,0,.278-.109.437-.327s.277-.307.367-.307a.3.3,0,0,1,.269.15,8.35,8.35,0,0,1,.216,1.749q.118,1.6.118,2.633c0,.424-.112.636-.336.636q-.3,0-.476-.572a14.308,14.308,0,0,0-.95-2.03,4,4,0,0,0-1.733-1.913,4.562,4.562,0,0,0-1.851-.415,3.76,3.76,0,0,0-2.336.692,2.236,2.236,0,0,0-.534,3.044,4.135,4.135,0,0,0,.7.831,34.829,34.829,0,0,0,3.771,1.829,16.389,16.389,0,0,1,2.811,1.492,4.143,4.143,0,0,1,1.128,1.413A4.013,4.013,0,0,1,112.27,93.309Z" transform="translate(-41.451 -71.421)" fill="#00416b"/>
        <path id="Path_5836" data-name="Path 5836" d="M122.662,83.057q-.277,4.382-.278,8.605,0,3.252.775,4.243a2.66,2.66,0,0,0,2.228.991,4.569,4.569,0,0,0,2.326-.772,1.9,1.9,0,0,1,.556-.277c.171,0,.257.092.257.277q0,.476-1.41,1.505a5.7,5.7,0,0,1-3.454,1.03,3.5,3.5,0,0,1-3.038-1.408,7.187,7.187,0,0,1-1.013-4.2q0-2.914.356-9.991-.138-.04-1.88-.138l-1.188-.08q-.436-.02-.436-.3c0-.171.164-.31.494-.415a13.312,13.312,0,0,0,2.722-1.737,5.7,5.7,0,0,0,2.229-4.068c.054-.46.2-.692.447-.692s.365.185.365.553c0,.118-.007.243-.019.374q-.06.77-.06,1.776l.02,3.078L127,81.354q1.108,0,1.148.257a1.64,1.64,0,0,1-.3,1.148Q126.819,82.759,122.662,83.057Z" transform="translate(-42.3 -71.118)" fill="#00416b"/>
        <path id="Path_5837" data-name="Path 5837" d="M159.932,86.05a11.017,11.017,0,0,1,2.663-3.33,4.758,4.758,0,0,1,2.979-1.11,2.586,2.586,0,0,1,1.881.782,2.429,2.429,0,0,1,.792,1.771q0,1.881-1.6,1.881-.753,0-1.267-1.05-.634-1.326-1.682-1.326a2.921,2.921,0,0,0-2.039,1.11,5.673,5.673,0,0,0-1.406,2.428,26.462,26.462,0,0,0-.356,5.522,15.452,15.452,0,0,0,.316,4.411q.317.566,1.624.724.357.04.356.278,0,.415-.93.416h-6.315c-.449,0-.674-.112-.674-.337q0-.315.891-.356,1.248-.078,1.544-.773a22.354,22.354,0,0,0,.3-5.114,60.974,60.974,0,0,0-.267-7.791q-.267-1.309-1.989-1.388-.713-.04-.713-.376a.291.291,0,0,1,.149-.267,9.4,9.4,0,0,1,1.812-.189l3.642-.2Q159.772,82.84,159.932,86.05Z" transform="translate(-44.281 -71.433)" fill="#00416b"/>
        <path id="Path_5838" data-name="Path 5838" d="M174.6,89.308c-.054.674-.08,1.208-.08,1.6a7.064,7.064,0,0,0,1.657,4.752,5.177,5.177,0,0,0,4.1,1.94,6.389,6.389,0,0,0,4.425-1.9c.4-.356.649-.534.755-.534q.317,0,.337.514a5.911,5.911,0,0,1-2.575,2.336,8.648,8.648,0,0,1-4.06.951,7.43,7.43,0,0,1-5.566-2.366,8.286,8.286,0,0,1-2.277-5.99,8.951,8.951,0,0,1,2.5-6.474,7.4,7.4,0,0,1,5.355-2.594,6.885,6.885,0,0,1,4.831,2.029,6.337,6.337,0,0,1,2.158,4.762,1.144,1.144,0,0,1-.129.614q-.129.2-1.517.2Zm0-1.03q2.579.119,5,.119l1.051-.06a3.485,3.485,0,0,0,1.825-.465,1.668,1.668,0,0,0,.636-1.495,4.143,4.143,0,0,0-1.141-2.9,3.543,3.543,0,0,0-2.688-1.237,4.1,4.1,0,0,0-2.848,1.415A7.839,7.839,0,0,0,174.6,88.278Z" transform="translate(-45.192 -71.43)" fill="#00416b"/>
      </g>
    </g>
    <g id="Group_465" data-name="Group 465" transform="translate(124.587 75.377)">
      <path id="Path_5839" data-name="Path 5839" d="M146.8,90.531a.593.593,0,0,0-.531.206c-.3.471.621,1.6,2.058,2.525a5.713,5.713,0,0,0,2.623,1.026.6.6,0,0,0,.532-.2c.306-.473-.619-1.6-2.061-2.529a5.691,5.691,0,0,0-2.621-1.024" transform="translate(-130.283 -76.414)" fill="#ff8487"/>
      <path id="Path_5840" data-name="Path 5840" d="M134.467,82.089c1.44.924,2.363,2.053,2.057,2.527s-1.713.105-3.153-.818-2.365-2.057-2.063-2.529,1.716-.1,3.159.82" transform="translate(-129.495 -75.915)" fill="#fb3b50"/>
      <path id="Path_5841" data-name="Path 5841" d="M147.611,77.649c-.548,0-1.51.862-2.32,2.118-.921,1.439-1.284,2.852-.816,3.156a.375.375,0,0,0,.212.057c.547,0,1.512-.862,2.317-2.115.923-1.444,1.288-2.857.818-3.159a.4.4,0,0,0-.212-.057" transform="translate(-130.181 -75.735)" fill="#ff646c"/>
      <path id="Path_5842" data-name="Path 5842" d="M138.019,92.606c-.547,0-1.512.865-2.317,2.113-.923,1.445-1.288,2.858-.818,3.162a.394.394,0,0,0,.215.057c.547,0,1.507-.864,2.314-2.118.922-1.44,1.289-2.855.82-3.157a.389.389,0,0,0-.214-.057" transform="translate(-129.675 -76.523)" fill="#ffa2a1"/>
      <path id="Path_5843" data-name="Path 5843" d="M135.529,77.378a.375.375,0,0,0-.2.055c-.477.291-.138,1.713.75,3.172.781,1.282,1.733,2.168,2.277,2.168a.391.391,0,0,0,.2-.053c.481-.293.146-1.711-.746-3.174-.783-1.28-1.733-2.168-2.279-2.168" transform="translate(-129.698 -75.72)" fill="#fd4757"/>
      <path id="Path_5844" data-name="Path 5844" d="M141.519,75.628c-.558,0-1.033,1.374-1.068,3.081s.4,3.1.956,3.117h.007c.558,0,1.037-1.374,1.07-3.081s-.4-3.107-.961-3.117Z" transform="translate(-129.98 -75.628)" fill="#ff5863"/>
      <path id="Path_5845" data-name="Path 5845" d="M143.834,93.011a.391.391,0,0,0-.244.072c-.451.333.013,1.72,1.033,3.092.869,1.168,1.861,1.953,2.417,1.953a.408.408,0,0,0,.249-.074c.444-.332-.015-1.716-1.036-3.092-.869-1.168-1.864-1.951-2.418-1.951" transform="translate(-130.136 -76.545)" fill="#ff8f8f"/>
      <path id="Path_5846" data-name="Path 5846" d="M140.982,93.415a.189.189,0,0,0-.031,0c-.555.045-.894,1.462-.754,3.172.133,1.679.682,3.007,1.233,3.007l.027,0c.556-.05.9-1.467.759-3.172-.135-1.678-.685-3.006-1.233-3.006" transform="translate(-129.965 -76.566)" fill="#ff9898"/>
      <path id="Path_5847" data-name="Path 5847" d="M135.564,89.945a5.726,5.726,0,0,0-2.614.989c-1.455.9-2.391,2.021-2.093,2.5a.6.6,0,0,0,.548.212,5.787,5.787,0,0,0,2.617-.986c1.455-.906,2.391-2.021,2.1-2.5a.608.608,0,0,0-.553-.214" transform="translate(-129.471 -76.383)" fill="#ffacab"/>
      <path id="Path_5848" data-name="Path 5848" d="M132.783,86.448c-.105,0-.214,0-.321.007-1.714.058-3.085.561-3.065,1.121.02.525,1.249.917,2.813.917.105,0,.212,0,.319-.007,1.709-.057,3.081-.558,3.062-1.118-.018-.523-1.248-.92-2.808-.92" transform="translate(-129.397 -76.198)" fill="#f92f49"/>
      <path id="Path_5849" data-name="Path 5849" d="M151.135,81.6a5.71,5.71,0,0,0-2.608.989c-1.457.9-2.4,2.02-2.1,2.5a.614.614,0,0,0,.552.212,5.807,5.807,0,0,0,2.62-.986c1.446-.9,2.39-2.02,2.09-2.5a.611.611,0,0,0-.553-.214" transform="translate(-130.292 -75.943)" fill="#ff7176"/>
      <path id="Path_5850" data-name="Path 5850" d="M150.5,86.78c-.105,0-.215,0-.324,0-1.711.057-3.079.558-3.064,1.118.016.525,1.249.919,2.814.919.1,0,.207,0,.314,0,1.714-.061,3.082-.56,3.063-1.124-.015-.52-1.246-.912-2.8-.912" transform="translate(-130.331 -76.216)" fill="#ff7a7e"/>
    </g>
  </g>
</svg>
