<?xml version="1.0" encoding="UTF-8"?>
<svg width="147px" height="19px" viewBox="0 0 147 19" version="1.1" xmlns="http://www.w3.org/2000/svg" xmlns:xlink="http://www.w3.org/1999/xlink">
    <title>NORA.LEGAL</title>
    <g id="Page-1" stroke="none" stroke-width="1" fill="none" fill-rule="evenodd">
        <g id="After" transform="translate(-43.000000, -47.000000)" fill="#272D3D" fill-rule="nonzero">
            <path d="M55.696,65.192 C56.4426667,65.192 56.9866667,65.128 57.328,65 C57.0933333,63.9973333 56.976,61.5973333 56.976,57.8 C56.976,56.2 57.0026667,54.4666667 57.056,52.6 C57.1093333,50.7333333 57.168,49.2453333 57.232,48.136 C56.7626667,48.008 56.336,47.944 55.952,47.944 C55.5466667,47.944 55.1306667,48.008 54.704,48.136 C54.9386667,49.0106667 55.056,51.432 55.056,55.4 C55.056,56.8506667 55.0346667,58.8346667 54.992,61.352 C53.7973333,59.3893333 52.432,57.0746667 50.896,54.408 C49.36,51.7413333 48.176,49.6506667 47.344,48.136 C46.5973333,48.008 45.9786667,47.944 45.488,47.944 C45.0613333,47.944 44.5173333,48.008 43.856,48.136 C44.0906667,49.1386667 44.208,51.5386667 44.208,55.336 C44.208,59.5173333 44.1226667,62.7386667 43.952,65 C44.4426667,65.128 44.8586667,65.192 45.2,65.192 C45.648,65.192 46.064,65.128 46.448,65 C46.2133333,63.9973333 46.096,61.576 46.096,57.736 C46.096,55.6666667 46.128,53.6933333 46.192,51.816 C47.3866667,53.7786667 48.752,56.0986667 50.288,58.776 C51.824,61.4533333 52.9973333,63.528 53.808,65 C54.5973333,65.128 55.2266667,65.192 55.696,65.192 Z M67.048,65.416 C68.84,65.416 70.44,65.0266667 71.848,64.248 C73.256,63.4693333 74.3546667,62.392 75.144,61.016 C75.9333333,59.64 76.328,58.0666667 76.328,56.296 C76.328,54.632 76.0026667,53.1653333 75.352,51.896 C74.7013333,50.6266667 73.784,49.64 72.6,48.936 C71.416,48.232 70.0453333,47.88 68.488,47.88 C66.7386667,47.88 65.1813333,48.2746667 63.816,49.064 C62.4506667,49.8533333 61.384,50.952 60.616,52.36 C59.848,53.768 59.464,55.3786667 59.464,57.192 C59.464,58.8133333 59.7786667,60.248 60.408,61.496 C61.0373333,62.744 61.928,63.7093333 63.08,64.392 C64.232,65.0746667 65.5546667,65.416 67.048,65.416 Z M67.784,63.752 C66.2053333,63.752 64.9306667,63.144 63.96,61.928 C62.9893333,60.712 62.504,59.112 62.504,57.128 C62.504,55.8693333 62.7546667,54.744 63.256,53.752 C63.7573333,52.76 64.4506667,51.9813333 65.336,51.416 C66.2213333,50.8506667 67.2186667,50.568 68.328,50.568 C69.8853333,50.8453333 71.1013333,51.576 71.976,52.76 C72.8506667,53.944 73.288,55.4426667 73.288,57.256 C73.288,59.2613333 72.792,60.8453333 71.8,62.008 C70.808,63.1706667 69.4693333,63.752 67.784,63.752 Z M88.096,65.192 C88.8426667,65.192 89.52,65.144 90.128,65.048 C90.736,64.952 91.328,64.776 91.904,64.52 C90.9226667,63.7306667 89.6106667,61.7253333 87.968,58.504 C89.0133333,58.0133333 89.8186667,57.3466667 90.384,56.504 C90.9493333,55.6613333 91.232,54.696 91.232,53.608 C91.232,51.7946667 90.656,50.4026667 89.504,49.432 C88.352,48.4613333 86.7093333,47.976 84.576,47.976 C83.4666667,47.976 82.3733333,48.056 81.296,48.216 C80.2186667,48.376 79.3493333,48.584 78.688,48.84 C79.0506667,49.6506667 79.232,51.816 79.232,55.336 C79.232,56.8506667 79.1946667,58.5786667 79.12,60.52 C79.0453333,62.4613333 78.9653333,63.9546667 78.88,65 C79.5626667,65.128 80.16,65.192 80.672,65.192 C81.2906667,65.192 81.888,65.128 82.464,65 C82.144,64.0613333 81.9733333,62.056 81.952,58.984 C82.2293333,59.0693333 82.6186667,59.1333333 83.12,59.176 C83.6213333,59.2186667 84.0853333,59.24 84.512,59.24 C84.8106667,59.24 85.0026667,59.2293333 85.088,59.208 C86.6453333,62.0453333 87.648,64.04 88.096,65.192 Z M85.44,57.608 C84.608,57.608 83.4453333,57.3413333 81.952,56.808 C81.9946667,54.0133333 82.0693333,51.8373333 82.176,50.28 C82.7093333,50.1306667 83.2853333,50.056 83.904,50.056 C86.7626667,50.056 88.192,51.3253333 88.192,53.864 C88.192,54.696 87.936,55.4426667 87.424,56.104 C86.912,56.7653333 86.2506667,57.2666667 85.44,57.608 Z M106.072,65.16 C106.669333,65.16 107.234667,65.0853333 107.768,64.936 C107.170667,63.8693333 106.114667,61.352 104.6,57.384 C103.085333,53.416 101.954667,50.312 101.208,48.072 C100.738667,47.9653333 100.312,47.912 99.928,47.912 C99.5653333,47.912 99.096,47.9653333 98.52,48.072 C97.7733333,50.312 96.6426667,53.416 95.128,57.384 C93.6133333,61.352 92.5573333,63.8693333 91.96,64.936 C92.408,65.064 92.8453333,65.128 93.272,65.128 C93.592,65.128 93.944,65.064 94.328,64.936 C94.84,63.4213333 95.3306667,62.0453333 95.8,60.808 C96.376,60.7013333 97.4533333,60.648 99.032,60.648 C100.525333,60.648 101.773333,60.6906667 102.776,60.776 L102.776,60.776 L104.248,64.936 C104.909333,65.0853333 105.517333,65.16 106.072,65.16 Z M100.5024,58.88768 L100.248,58.888 C98.8826667,58.888 97.656,58.856 96.568,58.792 C97.6133333,55.848 98.52,53.4906667 99.288,51.72 C100.098667,53.6186667 101.026667,55.9973333 102.072,58.856 C101.730667,58.8773333 101.122667,58.888 100.248,58.888 L100.5024,58.88768 Z M111.288,65.48 C112.056,64.8613333 112.824,64.0933333 113.592,63.176 C112.632,62.3226667 111.864,61.544 111.288,60.84 C110.413333,61.544 109.645333,62.3226667 108.984,63.176 C109.837333,63.8586667 110.605333,64.6266667 111.288,65.48 Z M126.84,65.096 C127.010667,64.8613333 127.170667,64.4133333 127.32,63.752 C127.469333,63.0906667 127.544,62.44 127.544,61.8 C127.032,62.056 126.397333,62.264 125.64,62.424 C124.882667,62.584 124.12,62.664 123.352,62.664 C122.093333,62.664 120.984,62.568 120.024,62.376 C119.938667,61.5013333 119.896,59.9546667 119.896,57.736 C119.896,56.2 119.928,54.504 119.992,52.648 C120.056,50.792 120.141333,49.288 120.248,48.136 C119.544,48.008 118.925333,47.944 118.392,47.944 C117.794667,47.944 117.208,48.008 116.632,48.136 C116.994667,49.0106667 117.176,51.4106667 117.176,55.336 C117.176,57.2133333 117.16,58.6373333 117.128,59.608 C117.096,60.5786667 116.994667,62.408 116.824,65.096 C117.954667,64.9466667 119.650667,64.872 121.912,64.872 C123.789333,64.872 125.432,64.9466667 126.84,65.096 Z M141.048,65.096 C141.24,64.8613333 141.4,64.408 141.528,63.736 C141.656,63.064 141.72,62.44 141.72,61.864 C141.122667,62.1413333 140.354667,62.3546667 139.416,62.504 C138.477333,62.6533333 137.538667,62.728 136.6,62.728 C135.384,62.728 134.264,62.6213333 133.24,62.408 C133.154667,61.4693333 133.112,59.8373333 133.112,57.512 C133.368,57.4906667 133.805333,57.48 134.424,57.48 C135.746667,57.48 137.581333,57.5546667 139.928,57.704 C140.013333,57.192 140.056,56.7866667 140.056,56.488 C140.056,56.1253333 140.013333,55.7306667 139.928,55.304 C139.266667,55.432 138.664,55.5226667 138.12,55.576 C137.576,55.6293333 136.792,55.656 135.768,55.656 L135.625383,55.6552099 C135.225053,55.6509959 134.664593,55.6299259 133.944,55.592 L133.944,55.592 L133.144,55.56 C133.165333,54.152 133.218667,52.552 133.304,50.76 C134.264,50.5893333 135.309333,50.504 136.44,50.504 C137.293333,50.504 138.125333,50.5786667 138.936,50.728 C139.746667,50.8773333 140.408,51.0906667 140.92,51.368 C141.112,51.112 141.272,50.6533333 141.4,49.992 C141.528,49.3306667 141.592,48.712 141.592,48.136 C140.034667,48.2853333 137.837333,48.36 135,48.36 L134.574875,48.359125 C132.483625,48.350375 130.908,48.276 129.848,48.136 C130.210667,49.4586667 130.392,51.88 130.392,55.4 C130.392,57.3626667 130.370667,58.9146667 130.328,60.056 C130.285333,61.1973333 130.189333,62.8773333 130.04,65.096 C131.170667,64.9466667 132.877333,64.872 135.16,64.872 C137.72,64.872 139.682667,64.9466667 141.048,65.096 Z M151.736,65.352 C152.930667,65.352 154.109333,65.1493333 155.272,64.744 C156.434667,64.3386667 157.368,63.8053333 158.072,63.144 C158.072,60.8186667 158.168,58.5786667 158.36,56.424 C157.677333,56.296 157.069333,56.232 156.536,56.232 C156.024,56.232 155.490667,56.296 154.936,56.424 C155.277333,57.2346667 155.448,59.3786667 155.448,62.856 C154.744,63.0693333 153.944,63.176 153.048,63.176 C151.064,63.176 149.64,62.648 148.776,61.592 C147.912,60.536 147.48,58.8026667 147.48,56.392 C147.48,55.3466667 147.661333,54.328 148.024,53.336 C148.386667,52.344 148.872,51.5013333 149.48,50.808 C150.088,50.1146667 150.744,49.6826667 151.448,49.512 C152.088,49.512 152.946667,49.7253333 154.024,50.152 C155.101333,50.5786667 156.12,51.1013333 157.08,51.72 C157.314667,51.3573333 157.517333,50.8773333 157.688,50.28 C157.858667,49.6826667 157.944,49.16 157.944,48.712 C156.557333,48.2 154.893333,47.944 152.952,47.944 C151.288,47.944 149.810667,48.3386667 148.52,49.128 C147.229333,49.9173333 146.226667,51.0213333 145.512,52.44 C144.797333,53.8586667 144.44,55.4746667 144.44,57.288 C144.44,59.8906667 145.069333,61.8853333 146.328,63.272 C147.586667,64.6586667 149.389333,65.352 151.736,65.352 Z M174.36,65.16 C174.957333,65.16 175.522667,65.0853333 176.056,64.936 C175.458667,63.8693333 174.402667,61.352 172.888,57.384 C171.373333,53.416 170.242667,50.312 169.496,48.072 C169.026667,47.9653333 168.6,47.912 168.216,47.912 C167.853333,47.912 167.384,47.9653333 166.808,48.072 C166.061333,50.312 164.930667,53.416 163.416,57.384 C161.901333,61.352 160.845333,63.8693333 160.248,64.936 C160.696,65.064 161.133333,65.128 161.56,65.128 C161.88,65.128 162.232,65.064 162.616,64.936 C163.128,63.4213333 163.618667,62.0453333 164.088,60.808 C164.664,60.7013333 165.741333,60.648 167.32,60.648 C168.813333,60.648 170.061333,60.6906667 171.064,60.776 L171.064,60.776 L172.536,64.936 C173.197333,65.0853333 173.805333,65.16 174.36,65.16 Z M168.7904,58.88768 L168.536,58.888 C167.170667,58.888 165.944,58.856 164.856,58.792 C165.901333,55.848 166.808,53.4906667 167.576,51.72 C168.386667,53.6186667 169.314667,55.9973333 170.36,58.856 C170.018667,58.8773333 169.410667,58.888 168.536,58.888 L168.7904,58.88768 Z M188.408,65.096 C188.578667,64.8613333 188.738667,64.4133333 188.888,63.752 C189.037333,63.0906667 189.112,62.44 189.112,61.8 C188.6,62.056 187.965333,62.264 187.208,62.424 C186.450667,62.584 185.688,62.664 184.92,62.664 C183.661333,62.664 182.552,62.568 181.592,62.376 C181.506667,61.5013333 181.464,59.9546667 181.464,57.736 C181.464,56.2 181.496,54.504 181.56,52.648 C181.624,50.792 181.709333,49.288 181.816,48.136 C181.112,48.008 180.493333,47.944 179.96,47.944 C179.362667,47.944 178.776,48.008 178.2,48.136 C178.562667,49.0106667 178.744,51.4106667 178.744,55.336 C178.744,57.2133333 178.728,58.6373333 178.696,59.608 C178.664,60.5786667 178.562667,62.408 178.392,65.096 C179.522667,64.9466667 181.218667,64.872 183.48,64.872 C185.357333,64.872 187,64.9466667 188.408,65.096 Z" id="NORA.LEGAL"></path>
        </g>
    </g>
</svg>