<svg xmlns="http://www.w3.org/2000/svg" width="134.747" height="123.577" viewBox="0 0 134.747 123.577">
  <g id="Group_500" data-name="Group 500" transform="translate(-1146.863 -638.06)">
    <rect id="Rectangle_102" data-name="Rectangle 102" width="134.747" height="83.713" rx="11.53" transform="translate(1146.863 638.06)" fill="#00416b"/>
    <path id="Path_5872" data-name="Path 5872" d="M1276.8,650.1v68.056a1.76,1.76,0,0,1-1.585,1.785H1158.634a1.756,1.756,0,0,1-1.732-1.781V650.1a1.757,1.757,0,0,1,1.728-1.785h116.44a1.753,1.753,0,0,1,1.728,1.778Z" transform="translate(-2.618 -4.207)" fill="#fff"/>
    <rect id="Rectangle_103" data-name="Rectangle 103" width="15.34" height="5.372" transform="translate(1206.566 721.773)" fill="#4d6c8e"/>
    <path id="Path_5873" data-name="Path 5873" d="M1269.947,875.682a5.57,5.57,0,0,1,4.5-2.271h29.734a5.58,5.58,0,0,1,4.505,2.271l2.271,3.086h-43.276Z" transform="translate(-75.079 -146.25)" fill="#00416b"/>
    <g id="Group_487" data-name="Group 487" transform="translate(1221.752 649)">
      <rect id="Rectangle_104" data-name="Rectangle 104" width="3.994" height="36.384" rx="1.997" transform="translate(0)" fill="#00416b"/>
      <g id="Group_486" data-name="Group 486" transform="translate(2.371 3.824)">
        <g id="Group_482" data-name="Group 482">
          <path id="Rectangle_105" data-name="Rectangle 105" d="M0,0H39.788a5.269,5.269,0,0,1,5.269,5.269v18.2a5.269,5.269,0,0,1-5.269,5.269H0a0,0,0,0,1,0,0V0A0,0,0,0,1,0,0Z" fill="#cdd5df"/>
          <rect id="Rectangle_106" data-name="Rectangle 106" width="45.057" height="6.884" transform="translate(0 15.966)" fill="#4d6c8e"/>
        </g>
        <g id="Group_483" data-name="Group 483" transform="translate(5.171 4.297)">
          <path id="Path_5874" data-name="Path 5874" d="M1377.805,688.407h1.147a3.025,3.025,0,0,1,.823.085.816.816,0,0,1,.452.342,1.54,1.54,0,0,1,.172.831.89.89,0,0,1-.122.541.841.841,0,0,1-.479.234.854.854,0,0,1,.541.3,1.156,1.156,0,0,1,.142.641v.41a1.641,1.641,0,0,1-.1.664.552.552,0,0,1-.326.295,3.35,3.35,0,0,1-.918.079h-1.329Zm1.149.756v.983l.115,0q.169,0,.216-.083a1.358,1.358,0,0,0,.047-.476.755.755,0,0,0-.039-.291.181.181,0,0,0-.1-.105A.893.893,0,0,0,1378.954,689.163Zm0,1.671v1.237a.491.491,0,0,0,.31-.077.531.531,0,0,0,.067-.336v-.413a.584.584,0,0,0-.06-.344A.543.543,0,0,0,1378.954,690.834Z" transform="translate(-1377.805 -688.407)" fill="#00416b"/>
          <path id="Path_5875" data-name="Path 5875" d="M1387.519,688.407l.657,4.42H1387l-.061-.795h-.411l-.069.795h-1.189l.587-4.42Zm-.609,2.842q-.088-.751-.175-1.857-.175,1.27-.22,1.857Z" transform="translate(-1382.445 -688.407)" fill="#00416b"/>
          <path id="Path_5876" data-name="Path 5876" d="M1396.028,688.407v4.42h-1.008l-.6-2.009v2.009h-.961v-4.42h.961l.644,1.991v-1.991Z" transform="translate(-1387.534 -688.407)" fill="#00416b"/>
          <path id="Path_5877" data-name="Path 5877" d="M1404.2,688.407l-.659,2,.721,2.424h-1.187l-.466-1.895v1.895h-1.149v-4.42h1.149v1.717l.513-1.717Z" transform="translate(-1392.504 -688.407)" fill="#00416b"/>
        </g>
        <g id="Group_484" data-name="Group 484" transform="translate(4.205 17.964)">
          <path id="Path_5878" data-name="Path 5878" d="M1376.388,727.2h-.517v-1.992l-.617.192v-.42l1.078-.386h.055Z" transform="translate(-1375.254 -724.56)" fill="#fff"/>
          <path id="Path_5879" data-name="Path 5879" d="M1382.181,727.146H1380.4v-.354l.842-.9a2.053,2.053,0,0,0,.257-.331.534.534,0,0,0,.083-.268.4.4,0,0,0-.088-.273.315.315,0,0,0-.25-.1.342.342,0,0,0-.277.121.48.48,0,0,0-.1.317h-.519a.855.855,0,0,1,.114-.435.8.8,0,0,1,.321-.308.973.973,0,0,1,.47-.112.925.925,0,0,1,.625.193.682.682,0,0,1,.223.545.876.876,0,0,1-.1.393,2.219,2.219,0,0,1-.344.467l-.592.624h1.12Z" transform="translate(-1378.417 -724.507)" fill="#fff"/>
          <path id="Path_5880" data-name="Path 5880" d="M1386.452,725.616h.275a.386.386,0,0,0,.291-.1.359.359,0,0,0,.095-.261.319.319,0,0,0-.093-.245.367.367,0,0,0-.259-.088.381.381,0,0,0-.248.082.26.26,0,0,0-.1.212h-.517a.636.636,0,0,1,.111-.366.724.724,0,0,1,.308-.253,1.021,1.021,0,0,1,.435-.091.977.977,0,0,1,.648.2.675.675,0,0,1,.233.545.548.548,0,0,1-.109.329.712.712,0,0,1-.286.23.653.653,0,0,1,.329.236.645.645,0,0,1,.108.372.686.686,0,0,1-.253.556,1.019,1.019,0,0,1-.67.209.964.964,0,0,1-.637-.206.671.671,0,0,1-.248-.543h.517a.3.3,0,0,0,.11.24.459.459,0,0,0,.56,0,.337.337,0,0,0,.1-.259q0-.389-.428-.39h-.274Z" transform="translate(-1381.847 -724.507)" fill="#fff"/>
          <path id="Path_5881" data-name="Path 5881" d="M1392.978,726.225h.3v.417h-.3v.563h-.516v-.563h-1.068l-.023-.325,1.084-1.714h.522Zm-1.092,0h.576v-.919l-.034.059Z" transform="translate(-1385.27 -724.566)" fill="#fff"/>
          <path id="Path_5882" data-name="Path 5882" d="M1399.63,725.925l.15-1.323h1.459v.431H1400.2l-.064.56a.817.817,0,0,1,.392-.1.751.751,0,0,1,.583.23.923.923,0,0,1,.211.646.944.944,0,0,1-.106.452.753.753,0,0,1-.3.309.951.951,0,0,1-.468.11,1.013,1.013,0,0,1-.439-.1.773.773,0,0,1-.318-.269.729.729,0,0,1-.125-.4h.511a.382.382,0,0,0,.114.253.355.355,0,0,0,.254.091.317.317,0,0,0,.27-.126.58.58,0,0,0,.095-.357.485.485,0,0,0-.109-.34.4.4,0,0,0-.309-.118.449.449,0,0,0-.3.1l-.05.047Z" transform="translate(-1390.361 -724.566)" fill="#fff"/>
          <path id="Path_5883" data-name="Path 5883" d="M1406.49,724.53v.426h-.051a.878.878,0,0,0-.564.182.745.745,0,0,0-.257.492.7.7,0,0,1,.524-.211.664.664,0,0,1,.54.243.978.978,0,0,1,.2.64.957.957,0,0,1-.11.46.79.79,0,0,1-.312.32.9.9,0,0,1-.454.114.843.843,0,0,1-.664-.286,1.109,1.109,0,0,1-.253-.763v-.186a1.669,1.669,0,0,1,.16-.749,1.167,1.167,0,0,1,.459-.5,1.342,1.342,0,0,1,.7-.18Zm-.5,1.305a.415.415,0,0,0-.227.065.4.4,0,0,0-.15.172v.158a.7.7,0,0,0,.1.4.348.348,0,0,0,.555.014.533.533,0,0,0,.1-.34.539.539,0,0,0-.1-.343A.339.339,0,0,0,1405.985,725.835Z" transform="translate(-1393.794 -724.521)" fill="#fff"/>
          <path id="Path_5884" data-name="Path 5884" d="M1412.291,724.89l-1.007,2.315h-.545l1.008-2.187h-1.294V724.6h1.838Z" transform="translate(-1397.127 -724.566)" fill="#fff"/>
          <path id="Path_5885" data-name="Path 5885" d="M1417.866,725.235a.606.606,0,0,1-.095.336.683.683,0,0,1-.261.235.754.754,0,0,1,.3.251.645.645,0,0,1,.111.376.682.682,0,0,1-.236.548,1.127,1.127,0,0,1-1.286,0,.681.681,0,0,1-.237-.547.65.65,0,0,1,.111-.377.737.737,0,0,1,.3-.25.671.671,0,0,1-.26-.235.605.605,0,0,1-.094-.336.675.675,0,0,1,.222-.53,1.02,1.02,0,0,1,1.2,0A.67.67,0,0,1,1417.866,725.235Zm-.463,1.16a.374.374,0,0,0-.1-.272.354.354,0,0,0-.265-.1.35.35,0,0,0-.262.1.424.424,0,0,0,0,.541.4.4,0,0,0,.533,0A.375.375,0,0,0,1417.4,726.395Zm-.054-1.135a.359.359,0,0,0-.08-.244.327.327,0,0,0-.452,0,.354.354,0,0,0-.081.247.37.37,0,0,0,.081.25.318.318,0,0,0,.453,0A.379.379,0,0,0,1417.349,725.26Z" transform="translate(-1400.675 -724.507)" fill="#fff"/>
          <path id="Path_5886" data-name="Path 5886" d="M1425.593,727.2h-.517v-1.992l-.617.192v-.42l1.078-.386h.055Z" transform="translate(-1405.831 -724.56)" fill="#fff"/>
          <path id="Path_5887" data-name="Path 5887" d="M1431.386,727.146H1429.6v-.354l.841-.9a2.055,2.055,0,0,0,.257-.331.535.535,0,0,0,.083-.268.4.4,0,0,0-.088-.273.315.315,0,0,0-.25-.1.341.341,0,0,0-.276.121.479.479,0,0,0-.1.317h-.519a.856.856,0,0,1,.114-.435.8.8,0,0,1,.321-.308.977.977,0,0,1,.47-.112.925.925,0,0,1,.625.193.683.683,0,0,1,.223.545.875.875,0,0,1-.1.393,2.218,2.218,0,0,1-.344.467l-.592.624h1.119Z" transform="translate(-1408.994 -724.507)" fill="#fff"/>
          <path id="Path_5888" data-name="Path 5888" d="M1435.657,725.616h.275a.387.387,0,0,0,.291-.1.36.36,0,0,0,.095-.261.32.32,0,0,0-.093-.245.367.367,0,0,0-.259-.088.382.382,0,0,0-.249.082.26.26,0,0,0-.1.212h-.517a.637.637,0,0,1,.11-.366.728.728,0,0,1,.308-.253,1.021,1.021,0,0,1,.435-.091.976.976,0,0,1,.648.2.674.674,0,0,1,.234.545.55.55,0,0,1-.109.329.71.71,0,0,1-.286.23.607.607,0,0,1,.437.608.687.687,0,0,1-.253.556,1.019,1.019,0,0,1-.67.209.964.964,0,0,1-.637-.206.671.671,0,0,1-.248-.543h.517a.3.3,0,0,0,.11.24.459.459,0,0,0,.56,0,.337.337,0,0,0,.1-.259q0-.389-.429-.39h-.274Z" transform="translate(-1412.424 -724.507)" fill="#fff"/>
          <path id="Path_5889" data-name="Path 5889" d="M1442.183,726.225h.3v.417h-.3v.563h-.516v-.563H1440.6l-.023-.325,1.085-1.714h.522Zm-1.092,0h.576v-.919l-.034.059Z" transform="translate(-1415.846 -724.566)" fill="#fff"/>
          <path id="Path_5890" data-name="Path 5890" d="M1448.836,725.925l.15-1.323h1.459v.431h-1.035l-.064.56a.816.816,0,0,1,.392-.1.75.75,0,0,1,.583.23.923.923,0,0,1,.211.646.947.947,0,0,1-.106.452.754.754,0,0,1-.3.309.95.95,0,0,1-.468.11,1.01,1.01,0,0,1-.439-.1.77.77,0,0,1-.318-.269.723.723,0,0,1-.124-.4h.51a.382.382,0,0,0,.114.253.355.355,0,0,0,.254.091.317.317,0,0,0,.27-.126.58.58,0,0,0,.095-.357.485.485,0,0,0-.109-.34.4.4,0,0,0-.309-.118.448.448,0,0,0-.3.1l-.05.047Z" transform="translate(-1420.938 -724.566)" fill="#fff"/>
          <path id="Path_5891" data-name="Path 5891" d="M1455.695,724.53v.426h-.05a.878.878,0,0,0-.564.182.744.744,0,0,0-.257.492.7.7,0,0,1,.524-.211.663.663,0,0,1,.54.243.976.976,0,0,1,.2.64.957.957,0,0,1-.11.46.79.79,0,0,1-.311.32.9.9,0,0,1-.454.114.843.843,0,0,1-.664-.286,1.109,1.109,0,0,1-.253-.763v-.186a1.675,1.675,0,0,1,.16-.749,1.169,1.169,0,0,1,.459-.5,1.343,1.343,0,0,1,.695-.18Zm-.5,1.305a.412.412,0,0,0-.227.065.394.394,0,0,0-.151.172v.158a.7.7,0,0,0,.1.4.348.348,0,0,0,.555.014.617.617,0,0,0,0-.683A.339.339,0,0,0,1455.191,725.835Z" transform="translate(-1424.371 -724.521)" fill="#fff"/>
          <path id="Path_5892" data-name="Path 5892" d="M1461.5,724.89l-1.006,2.315h-.545l1.008-2.187h-1.294V724.6h1.838Z" transform="translate(-1427.704 -724.566)" fill="#fff"/>
          <path id="Path_5893" data-name="Path 5893" d="M1467.071,725.235a.607.607,0,0,1-.095.336.684.684,0,0,1-.261.235.756.756,0,0,1,.3.251.645.645,0,0,1,.111.376.682.682,0,0,1-.236.548,1.127,1.127,0,0,1-1.286,0,.681.681,0,0,1-.238-.547.648.648,0,0,1,.111-.377.736.736,0,0,1,.3-.25.672.672,0,0,1-.26-.235.606.606,0,0,1-.094-.336.675.675,0,0,1,.222-.53,1.02,1.02,0,0,1,1.2,0A.671.671,0,0,1,1467.071,725.235Zm-.463,1.16a.374.374,0,0,0-.1-.272.395.395,0,0,0-.528,0,.426.426,0,0,0,0,.541.4.4,0,0,0,.533,0A.373.373,0,0,0,1466.608,726.395Zm-.054-1.135a.36.36,0,0,0-.08-.244.327.327,0,0,0-.453,0,.354.354,0,0,0-.081.247.37.37,0,0,0,.081.25.318.318,0,0,0,.453,0A.379.379,0,0,0,1466.554,725.26Z" transform="translate(-1431.251 -724.507)" fill="#fff"/>
        </g>
        <g id="Group_485" data-name="Group 485" transform="translate(28.828 1.98)">
          <ellipse id="Ellipse_13" data-name="Ellipse 13" cx="3.994" cy="3.994" rx="3.994" ry="3.994" transform="matrix(0.555, -0.832, 0.832, 0.555, 3.541, 6.647)" fill="#fd495c"/>
          <ellipse id="Ellipse_14" data-name="Ellipse 14" cx="3.994" cy="3.994" rx="3.994" ry="3.994" transform="translate(0 3.082) rotate(-19.218)" fill="#4d6c8e"/>
        </g>
      </g>
      <rect id="Rectangle_107" data-name="Rectangle 107" width="1.981" height="28.736" transform="translate(2.371 3.824)" fill="#ccd8dc"/>
      <line id="Line_1" data-name="Line 1" y2="30.654" transform="translate(1.997 2.789)" fill="none" stroke="#2b454e" stroke-linecap="round" stroke-linejoin="round" stroke-width="3"/>
    </g>
    <g id="Group_498" data-name="Group 498" transform="translate(1182.364 649.387)">
      <g id="Group_492" data-name="Group 492" transform="translate(0 14.885)">
        <g id="Group_488" data-name="Group 488" transform="translate(1.514 1.514)" opacity="0.75">
          <circle id="Ellipse_15" data-name="Ellipse 15" cx="8.498" cy="8.498" r="8.498" fill="#a6a6a6"/>
          <ellipse id="Ellipse_16" data-name="Ellipse 16" cx="7.094" cy="7.094" rx="7.094" ry="7.094" transform="translate(0.414 14.439) rotate(-81.314)" fill="#a6a6a6"/>
          <path id="Path_5894" data-name="Path 5894" d="M1277.221,728.2a.921.921,0,0,0-.228-.655,2.072,2.072,0,0,0-.776-.449,8.979,8.979,0,0,1-.944-.409,3.012,3.012,0,0,1-.681-.467,1.881,1.881,0,0,1-.442-.62,2.085,2.085,0,0,1-.158-.849,1.882,1.882,0,0,1,.543-1.39,2.287,2.287,0,0,1,1.441-.633v-1.074h.8v1.09a2.1,2.1,0,0,1,1.391.74,2.441,2.441,0,0,1,.5,1.594h-1.451a1.388,1.388,0,0,0-.248-.9.823.823,0,0,0-.666-.3.844.844,0,0,0-.637.234.886.886,0,0,0-.226.645.85.85,0,0,0,.221.612,2.438,2.438,0,0,0,.821.472,9.052,9.052,0,0,1,.987.454,2.871,2.871,0,0,1,.653.482,1.873,1.873,0,0,1,.407.613,2.111,2.111,0,0,1,.141.8,1.873,1.873,0,0,1-.532,1.386,2.333,2.333,0,0,1-1.466.628v1h-.8v-.994a2.416,2.416,0,0,1-1.594-.731,2.356,2.356,0,0,1-.565-1.649h1.451a1.335,1.335,0,0,0,.284.916,1.035,1.035,0,0,0,.816.319,1,1,0,0,0,.7-.234A.81.81,0,0,0,1277.221,728.2Z" transform="translate(-1267.706 -717.73)" fill="#a6a6a6"/>
        </g>
        <g id="Group_491" data-name="Group 491">
          <g id="Group_490" data-name="Group 490">
            <circle id="Ellipse_17" data-name="Ellipse 17" cx="8.498" cy="8.498" r="8.498" fill="#fd495c"/>
            <ellipse id="Ellipse_18" data-name="Ellipse 18" cx="7.094" cy="7.094" rx="7.094" ry="7.094" transform="translate(0.414 14.439) rotate(-81.314)" fill="#ffaba9"/>
            <g id="Group_489" data-name="Group 489" transform="translate(6.01 3.919)">
              <path id="Path_5895" data-name="Path 5895" d="M1273.221,724.2a.921.921,0,0,0-.228-.655,2.071,2.071,0,0,0-.776-.449,9.018,9.018,0,0,1-.944-.409,3.01,3.01,0,0,1-.681-.467,1.875,1.875,0,0,1-.442-.62,2.086,2.086,0,0,1-.158-.849,1.881,1.881,0,0,1,.542-1.39,2.286,2.286,0,0,1,1.441-.633v-1.074h.8v1.09a2.1,2.1,0,0,1,1.391.741,2.441,2.441,0,0,1,.5,1.594h-1.451a1.386,1.386,0,0,0-.248-.9.822.822,0,0,0-.666-.3.843.843,0,0,0-.637.234.887.887,0,0,0-.226.645.849.849,0,0,0,.221.613,2.438,2.438,0,0,0,.821.472,9.086,9.086,0,0,1,.987.454,2.849,2.849,0,0,1,.653.482,1.87,1.87,0,0,1,.407.613,2.113,2.113,0,0,1,.141.8,1.873,1.873,0,0,1-.532,1.386,2.332,2.332,0,0,1-1.466.628v1h-.8v-.994a2.416,2.416,0,0,1-1.594-.731,2.356,2.356,0,0,1-.565-1.649h1.451a1.334,1.334,0,0,0,.284.916,1.035,1.035,0,0,0,.816.319,1,1,0,0,0,.7-.234A.809.809,0,0,0,1273.221,724.2Z" transform="translate(-1269.716 -717.649)" fill="#fd495c"/>
            </g>
          </g>
        </g>
      </g>
      <g id="Group_497" data-name="Group 497" transform="translate(8.498)">
        <g id="Group_493" data-name="Group 493" transform="translate(1.136 1.136)" opacity="0.75">
          <circle id="Ellipse_19" data-name="Ellipse 19" cx="11.823" cy="11.823" r="11.823" fill="#abbec6"/>
          <ellipse id="Ellipse_20" data-name="Ellipse 20" cx="9.87" cy="9.87" rx="9.87" ry="9.87" transform="translate(0.489 19.97) rotate(-80.706)" fill="#abbec6"/>
          <path id="Path_5896" data-name="Path 5896" d="M1306.251,694.494a1.28,1.28,0,0,0-.318-.912,2.885,2.885,0,0,0-1.08-.625,12.752,12.752,0,0,1-1.313-.569,4.184,4.184,0,0,1-.947-.65,2.6,2.6,0,0,1-.615-.863,2.891,2.891,0,0,1-.221-1.181,2.62,2.62,0,0,1,.755-1.935,3.184,3.184,0,0,1,2.005-.88v-1.5h1.118V686.9a2.918,2.918,0,0,1,1.935,1.031,3.4,3.4,0,0,1,.7,2.218h-2.019a1.928,1.928,0,0,0-.345-1.254,1.144,1.144,0,0,0-.926-.415,1.177,1.177,0,0,0-.887.324,1.237,1.237,0,0,0-.315.9,1.179,1.179,0,0,0,.307.852,3.391,3.391,0,0,0,1.142.656,12.813,12.813,0,0,1,1.373.632,3.978,3.978,0,0,1,.908.671,2.6,2.6,0,0,1,.566.852,2.923,2.923,0,0,1,.2,1.114,2.61,2.61,0,0,1-.74,1.928,3.247,3.247,0,0,1-2.04.873v1.39h-1.111v-1.383a3.36,3.36,0,0,1-2.218-1.016,3.278,3.278,0,0,1-.786-2.295h2.019a1.858,1.858,0,0,0,.395,1.275,1.439,1.439,0,0,0,1.135.444,1.387,1.387,0,0,0,.971-.325A1.129,1.129,0,0,0,1306.251,694.494Z" transform="translate(-1293.013 -679.931)" fill="#abbec6"/>
        </g>
        <g id="Group_496" data-name="Group 496">
          <g id="Group_495" data-name="Group 495">
            <circle id="Ellipse_21" data-name="Ellipse 21" cx="11.823" cy="11.823" r="11.823" fill="#fd495c"/>
            <ellipse id="Ellipse_22" data-name="Ellipse 22" cx="9.87" cy="9.87" rx="9.87" ry="9.87" transform="translate(0.489 19.97) rotate(-80.706)" fill="#ffaba9"/>
            <g id="Group_494" data-name="Group 494" transform="translate(8.362 5.453)">
              <path id="Path_5897" data-name="Path 5897" d="M1303.251,691.494a1.28,1.28,0,0,0-.318-.912,2.884,2.884,0,0,0-1.08-.625,12.765,12.765,0,0,1-1.313-.569,4.188,4.188,0,0,1-.947-.65,2.607,2.607,0,0,1-.615-.863,2.9,2.9,0,0,1-.22-1.181,2.62,2.62,0,0,1,.755-1.935,3.183,3.183,0,0,1,2-.88v-1.5h1.118V683.9a2.918,2.918,0,0,1,1.935,1.03,3.4,3.4,0,0,1,.7,2.218h-2.019a1.928,1.928,0,0,0-.346-1.254,1.144,1.144,0,0,0-.926-.415,1.177,1.177,0,0,0-.887.325,1.236,1.236,0,0,0-.314.9,1.18,1.18,0,0,0,.307.852,3.393,3.393,0,0,0,1.142.656,12.82,12.82,0,0,1,1.373.632,3.983,3.983,0,0,1,.908.671,2.6,2.6,0,0,1,.566.852,2.926,2.926,0,0,1,.2,1.114,2.61,2.61,0,0,1-.74,1.928,3.247,3.247,0,0,1-2.04.873v1.39h-1.111v-1.383a3.36,3.36,0,0,1-2.218-1.016,3.278,3.278,0,0,1-.786-2.295h2.019a1.857,1.857,0,0,0,.395,1.275,1.44,1.44,0,0,0,1.135.444,1.387,1.387,0,0,0,.971-.325A1.129,1.129,0,0,0,1303.251,691.494Z" transform="translate(-1298.375 -682.384)" fill="#fd495c"/>
            </g>
          </g>
        </g>
      </g>
    </g>
    <path id="Path_5898" data-name="Path 5898" d="M1244.986,777h43.675a10.546,10.546,0,0,1,10.546,10.546h0a10.546,10.546,0,0,1-10.546,10.546h-43.675a10.546,10.546,0,0,1-10.546-10.546h0A10.546,10.546,0,0,1,1244.986,777Z" transform="translate(-54.422 -86.339)" fill="#ff898a"/>
    <text id="PAY" transform="translate(1213.975 703.836)" fill="#00416b" font-size="9" font-family="Nilland-Black, Nilland" font-weight="800"><tspan x="-9.108" y="0">PAY</tspan></text>
    <g id="Group_499" data-name="Group 499" transform="translate(1227.671 699.757)">
      <path id="Path_5899" data-name="Path 5899" d="M1387.548,862.9a3.068,3.068,0,0,1-2.994-1.718l-9.546-19.578a1.149,1.149,0,0,0-1.894-.254l-6.234,7.484a3.072,3.072,0,0,1-5.408-1.923l-1.161-42.728a3.072,3.072,0,0,1,5.027-2.45l32.944,27.234a3.055,3.055,0,0,1,.976,3.325,3.094,3.094,0,0,1-2.743,2.108l-9.784.3h-.02a1.152,1.152,0,0,0-.924,1.65l9.543,19.578a3.068,3.068,0,0,1-1.412,4.1l-5.258,2.564A3.07,3.07,0,0,1,1387.548,862.9Zm-13.809-23.853a3.081,3.081,0,0,1,3,1.718l9.543,19.575a1.145,1.145,0,0,0,1.529.534l.006,0,5.258-2.561a1.152,1.152,0,0,0,.582-.651,1.123,1.123,0,0,0-.055-.875l-9.543-19.581a3.049,3.049,0,0,1,.114-2.9,3.126,3.126,0,0,1,2.473-1.513l9.784-.3h.026a1.152,1.152,0,0,0,.618-2.03h0l-32.948-27.234a1.113,1.113,0,0,0-1.233-.146,1.126,1.126,0,0,0-.651,1.064l1.161,42.728a1.152,1.152,0,0,0,2.014.725l6.234-7.484A3.087,3.087,0,0,1,1373.739,839.045Z" transform="translate(-1360.31 -801.027)" fill="#4d6c8e"/>
      <path id="Path_5900" data-name="Path 5900" d="M1399.705,831.713l-32.961-27.24a2.109,2.109,0,0,0-3.443,1.682l1.165,42.736a2.112,2.112,0,0,0,3.7,1.334l6.248-7.5a2.111,2.111,0,0,1,3.485.469l9.541,19.586a2.108,2.108,0,0,0,2.817.978l0,0,5.255-2.561a2.108,2.108,0,0,0,.978-2.817l0,0-9.544-19.58a2.108,2.108,0,0,1,1.776-3.03l9.763-.3a2.112,2.112,0,0,0,1.22-3.746Z" transform="translate(-1362.169 -802.872)" fill="#fff"/>
    </g>
  </g>
</svg>
