<svg xmlns="http://www.w3.org/2000/svg" xmlns:xlink="http://www.w3.org/1999/xlink" width="122.898" height="162.995" viewBox="0 0 122.898 162.995">
  <defs>
    <filter id="Path_5944" x="41.397" y="15.398" width="10.565" height="8.292" filterUnits="userSpaceOnUse">
      <feOffset dx="2" dy="2" input="SourceAlpha"/>
      <feGaussianBlur result="blur"/>
      <feFlood flood-color="#f3f4f6"/>
      <feComposite operator="in" in2="blur"/>
      <feComposite in="SourceGraphic"/>
    </filter>
    <filter id="Path_5950" x="41.397" y="28.816" width="10.565" height="8.292" filterUnits="userSpaceOnUse">
      <feOffset dx="2" dy="2" input="SourceAlpha"/>
      <feGaussianBlur result="blur-2"/>
      <feFlood flood-color="#f3f4f6"/>
      <feComposite operator="in" in2="blur-2"/>
      <feComposite in="SourceGraphic"/>
    </filter>
    <filter id="Path_5956" x="41.397" y="42.234" width="10.565" height="8.292" filterUnits="userSpaceOnUse">
      <feOffset dx="2" dy="2" input="SourceAlpha"/>
      <feGaussianBlur result="blur-3"/>
      <feFlood flood-color="#f3f4f6"/>
      <feComposite operator="in" in2="blur-3"/>
      <feComposite in="SourceGraphic"/>
    </filter>
    <filter id="Path_5962" x="41.397" y="55.651" width="10.565" height="8.293" filterUnits="userSpaceOnUse">
      <feOffset dx="2" dy="2" input="SourceAlpha"/>
      <feGaussianBlur result="blur-4"/>
      <feFlood flood-color="#f3f4f6"/>
      <feComposite operator="in" in2="blur-4"/>
      <feComposite in="SourceGraphic"/>
    </filter>
    <clipPath id="clip-path">
      <circle id="Ellipse_23" data-name="Ellipse 23" cx="14.163" cy="14.163" r="14.163" fill="none"/>
    </clipPath>
    <filter id="Path_5982" x="35.312" y="-3.794" width="13.164" height="10.202" filterUnits="userSpaceOnUse">
      <feOffset dx="2" dy="2" input="SourceAlpha"/>
      <feGaussianBlur result="blur-5"/>
      <feFlood flood-color="#f3f4f6"/>
      <feComposite operator="in" in2="blur-5"/>
      <feComposite in="SourceGraphic"/>
    </filter>
    <filter id="Path_5988" x="35.312" y="13.696" width="13.164" height="10.202" filterUnits="userSpaceOnUse">
      <feOffset dx="2" dy="2" input="SourceAlpha"/>
      <feGaussianBlur result="blur-6"/>
      <feFlood flood-color="#f3f4f6"/>
      <feComposite operator="in" in2="blur-6"/>
      <feComposite in="SourceGraphic"/>
    </filter>
    <filter id="Path_5994" x="35.312" y="31.186" width="13.164" height="10.202" filterUnits="userSpaceOnUse">
      <feOffset dx="2" dy="2" input="SourceAlpha"/>
      <feGaussianBlur result="blur-7"/>
      <feFlood flood-color="#f3f4f6"/>
      <feComposite operator="in" in2="blur-7"/>
      <feComposite in="SourceGraphic"/>
    </filter>
    <filter id="Path_6000" x="35.312" y="48.676" width="13.164" height="10.202" filterUnits="userSpaceOnUse">
      <feOffset dx="2" dy="2" input="SourceAlpha"/>
      <feGaussianBlur result="blur-8"/>
      <feFlood flood-color="#f3f4f6"/>
      <feComposite operator="in" in2="blur-8"/>
      <feComposite in="SourceGraphic"/>
    </filter>
  </defs>
  <g id="Group_544" data-name="Group 544" transform="translate(-2231.783 506.611)">
    <g id="Group_527" data-name="Group 527" transform="translate(2231.783 -512.333)">
      <rect id="Rectangle_113" data-name="Rectangle 113" width="118.987" height="73.922" rx="11.53" transform="translate(0 42.3)" fill="#00416b"/>
      <path id="Path_5935" data-name="Path 5935" d="M2346.957-373.989v59.677a1.543,1.543,0,0,1-1.39,1.565H2243.341a1.541,1.541,0,0,1-1.519-1.562v-59.681a1.541,1.541,0,0,1,1.515-1.565h102.1a1.537,1.537,0,0,1,1.515,1.559Z" transform="translate(-2234.899 423.411)" fill="#fff"/>
      <rect id="Rectangle_114" data-name="Rectangle 114" width="13.546" height="4.744" transform="translate(52.72 116.222)" fill="#4d6c8e"/>
      <path id="Path_5936" data-name="Path 5936" d="M2354.6-148.448a4.919,4.919,0,0,1,3.975-2.006h26.257a4.928,4.928,0,0,1,3.979,2.006l2.006,2.725H2352.6Z" transform="translate(-2312.212 271.433)" fill="#00416b"/>
      <rect id="Rectangle_115" data-name="Rectangle 115" width="67.04" height="41.2" transform="translate(26.304 58.141)" fill="#fd495c"/>
      <path id="Path_5937" data-name="Path 5937" d="M2343.984-426.154l-33.518,29.33h67.04Z" transform="translate(-2284.161 454.964)" fill="#fd495c"/>
      <path id="Path_5938" data-name="Path 5938" d="M2377.506-338.419l-33.522,20.6-33.518-20.6,31,17.484a5.505,5.505,0,0,0,5.047,0Z" transform="translate(-2284.161 396.56)" fill="#54565a" opacity="0.25"/>
      <g id="Group_526" data-name="Group 526" transform="translate(30.529)">
        <g id="Group_516" data-name="Group 516">
          <path id="Path_5939" data-name="Path 5939" d="M2379.02-417.574h-53.242a2.674,2.674,0,0,1-2.674-2.674v-72.2a2.674,2.674,0,0,1,2.674-2.674l24.163-.1h5.4l23.675.1a2.674,2.674,0,0,1,2.674,2.674v72.2A2.674,2.674,0,0,1,2379.02-417.574Z" transform="translate(-2323.104 500.938)" fill="#869ab2"/>
          <path id="Path_5940" data-name="Path 5940" d="M2323.1-438.419v55.981a2.674,2.674,0,0,0,2.674,2.674h53.242a2.674,2.674,0,0,0,2.674-2.674v-11.048Z" transform="translate(-2323.104 463.129)" fill="#4d6c8e"/>
          <rect id="Rectangle_116" data-name="Rectangle 116" width="51.782" height="70.39" rx="3.269" transform="translate(3.404 9.397)" fill="#f3f4f6"/>
        </g>
        <g id="Group_525" data-name="Group 525" transform="translate(9.229 20.383)">
          <g id="Group_518" data-name="Group 518">
            <path id="Path_5943" data-name="Path 5943" d="M2359.362-442.708h-8.653v-8.653h8.653Zm-8.335-.318h8.017v-8.017h-8.017Z" transform="translate(-2350.71 451.361)" fill="#00416b"/>
            <g transform="matrix(1, 0, 0, 1, -39.76, -14.66)" filter="url(#Path_5944)">
              <path id="Path_5944-2" data-name="Path 5944" d="M2358.6-442.864l-2.984-2.343.786-1,2.114,1.659,4.783-4.609.882.916Z" transform="translate(-2314.22 464.55)" fill="#ff7f82"/>
            </g>
            <g id="Group_517" data-name="Group 517" transform="translate(12.174 1.883)">
              <path id="Path_5945" data-name="Path 5945" d="M2414.6-445.086h-27.159a.321.321,0,0,1-.321-.321h0a.32.32,0,0,1,.321-.321H2414.6a.321.321,0,0,1,.321.321h0A.321.321,0,0,1,2414.6-445.086Z" transform="translate(-2387.124 445.728)" fill="#869ab2"/>
              <path id="Path_5946" data-name="Path 5946" d="M2414.6-440.855h-27.159a.32.32,0,0,1-.321-.321h0a.321.321,0,0,1,.321-.321H2414.6a.321.321,0,0,1,.321.321h0A.321.321,0,0,1,2414.6-440.855Z" transform="translate(-2387.124 442.911)" fill="#869ab2"/>
              <path id="Path_5947" data-name="Path 5947" d="M2414.6-436.622h-27.159a.32.32,0,0,1-.321-.321h0a.321.321,0,0,1,.321-.321H2414.6a.321.321,0,0,1,.321.321h0A.321.321,0,0,1,2414.6-436.622Z" transform="translate(-2387.124 440.094)" fill="#869ab2"/>
              <path id="Path_5948" data-name="Path 5948" d="M2414.6-432.389h-27.159a.321.321,0,0,1-.321-.321h0a.32.32,0,0,1,.321-.321H2414.6a.321.321,0,0,1,.321.321h0A.321.321,0,0,1,2414.6-432.389Z" transform="translate(-2387.124 437.276)" fill="#869ab2"/>
            </g>
          </g>
          <g id="Group_520" data-name="Group 520" transform="translate(0 13.418)">
            <path id="Path_5949" data-name="Path 5949" d="M2359.362-402.572h-8.653v-8.653h8.653Zm-8.335-.318h8.017v-8.017h-8.017Z" transform="translate(-2350.71 411.225)" fill="#00416b"/>
            <g transform="matrix(1, 0, 0, 1, -39.76, -28.08)" filter="url(#Path_5950)">
              <path id="Path_5950-2" data-name="Path 5950" d="M2358.6-402.728l-2.984-2.343.786-1,2.114,1.66,4.783-4.609.882.916Z" transform="translate(-2314.22 437.84)" fill="#ff7f82"/>
            </g>
            <g id="Group_519" data-name="Group 519" transform="translate(12.174 1.883)">
              <path id="Path_5951" data-name="Path 5951" d="M2414.6-404.95h-27.159a.321.321,0,0,1-.321-.321h0a.321.321,0,0,1,.321-.321H2414.6a.321.321,0,0,1,.321.321h0A.321.321,0,0,1,2414.6-404.95Z" transform="translate(-2387.124 405.592)" fill="#869ab2"/>
              <path id="Path_5952" data-name="Path 5952" d="M2414.6-400.718h-27.159a.32.32,0,0,1-.321-.321h0a.321.321,0,0,1,.321-.321H2414.6a.321.321,0,0,1,.321.321h0A.321.321,0,0,1,2414.6-400.718Z" transform="translate(-2387.124 402.775)" fill="#869ab2"/>
              <path id="Path_5953" data-name="Path 5953" d="M2414.6-396.486h-27.159a.321.321,0,0,1-.321-.321h0a.321.321,0,0,1,.321-.321H2414.6a.321.321,0,0,1,.321.321h0A.321.321,0,0,1,2414.6-396.486Z" transform="translate(-2387.124 399.958)" fill="#869ab2"/>
              <path id="Path_5954" data-name="Path 5954" d="M2414.6-392.253h-27.159a.321.321,0,0,1-.321-.321h0a.32.32,0,0,1,.321-.321H2414.6a.321.321,0,0,1,.321.321h0A.321.321,0,0,1,2414.6-392.253Z" transform="translate(-2387.124 397.14)" fill="#869ab2"/>
            </g>
          </g>
          <g id="Group_522" data-name="Group 522" transform="translate(0 26.836)">
            <path id="Path_5955" data-name="Path 5955" d="M2359.362-362.436h-8.653v-8.653h8.653Zm-8.335-.318h8.017v-8.017h-8.017Z" transform="translate(-2350.71 371.089)" fill="#00416b"/>
            <g transform="matrix(1, 0, 0, 1, -39.76, -41.5)" filter="url(#Path_5956)">
              <path id="Path_5956-2" data-name="Path 5956" d="M2358.6-362.592l-2.984-2.343.786-1,2.114,1.659,4.783-4.609.882.916Z" transform="translate(-2314.22 411.12)" fill="#ff7f82"/>
            </g>
            <g id="Group_521" data-name="Group 521" transform="translate(12.174 1.883)">
              <path id="Path_5957" data-name="Path 5957" d="M2414.6-364.814h-27.159a.321.321,0,0,1-.321-.321h0a.321.321,0,0,1,.321-.321H2414.6a.321.321,0,0,1,.321.321h0A.321.321,0,0,1,2414.6-364.814Z" transform="translate(-2387.124 365.456)" fill="#869ab2"/>
              <path id="Path_5958" data-name="Path 5958" d="M2414.6-360.582h-27.159a.32.32,0,0,1-.321-.321h0a.321.321,0,0,1,.321-.321H2414.6a.321.321,0,0,1,.321.321h0A.321.321,0,0,1,2414.6-360.582Z" transform="translate(-2387.124 362.639)" fill="#869ab2"/>
              <path id="Path_5959" data-name="Path 5959" d="M2414.6-356.349h-27.159a.321.321,0,0,1-.321-.321h0a.32.32,0,0,1,.321-.321H2414.6a.321.321,0,0,1,.321.321h0A.321.321,0,0,1,2414.6-356.349Z" transform="translate(-2387.124 359.821)" fill="#869ab2"/>
              <path id="Path_5960" data-name="Path 5960" d="M2414.6-352.117h-27.159a.321.321,0,0,1-.321-.321h0a.32.32,0,0,1,.321-.321H2414.6a.321.321,0,0,1,.321.321h0A.321.321,0,0,1,2414.6-352.117Z" transform="translate(-2387.124 357.004)" fill="#869ab2"/>
            </g>
          </g>
          <g id="Group_524" data-name="Group 524" transform="translate(0 40.253)">
            <path id="Path_5961" data-name="Path 5961" d="M2359.362-322.3h-8.653v-8.653h8.653Zm-8.335-.318h8.017v-8.017h-8.017Z" transform="translate(-2350.71 330.953)" fill="#00416b"/>
            <g transform="matrix(1, 0, 0, 1, -39.76, -54.91)" filter="url(#Path_5962)">
              <path id="Path_5962-2" data-name="Path 5962" d="M2358.6-322.456l-2.984-2.343.786-1,2.114,1.659,4.783-4.609.882.916Z" transform="translate(-2314.22 384.4)" fill="#ff7f82"/>
            </g>
            <g id="Group_523" data-name="Group 523" transform="translate(12.174 1.883)">
              <path id="Path_5963" data-name="Path 5963" d="M2414.6-324.678h-27.159a.32.32,0,0,1-.321-.321h0a.321.321,0,0,1,.321-.321H2414.6a.321.321,0,0,1,.321.321h0A.321.321,0,0,1,2414.6-324.678Z" transform="translate(-2387.124 325.32)" fill="#869ab2"/>
              <path id="Path_5964" data-name="Path 5964" d="M2414.6-320.446h-27.159a.32.32,0,0,1-.321-.321h0a.321.321,0,0,1,.321-.321H2414.6a.321.321,0,0,1,.321.321h0A.321.321,0,0,1,2414.6-320.446Z" transform="translate(-2387.124 322.503)" fill="#869ab2"/>
              <path id="Path_5965" data-name="Path 5965" d="M2414.6-316.214h-27.159a.321.321,0,0,1-.321-.321h0a.32.32,0,0,1,.321-.321H2414.6a.321.321,0,0,1,.321.321h0A.321.321,0,0,1,2414.6-316.214Z" transform="translate(-2387.124 319.685)" fill="#869ab2"/>
              <path id="Path_5966" data-name="Path 5966" d="M2414.6-311.981h-27.159a.321.321,0,0,1-.321-.321h0a.32.32,0,0,1,.321-.321H2414.6a.321.321,0,0,1,.321.321h0A.321.321,0,0,1,2414.6-311.981Z" transform="translate(-2387.124 316.868)" fill="#869ab2"/>
            </g>
          </g>
        </g>
      </g>
      <path id="Path_5967" data-name="Path 5967" d="M2310.466-338.419l33.518,20.6,33.522,20.6h-67.04Z" transform="translate(-2284.161 396.56)" fill="#ff616b"/>
      <path id="Path_5968" data-name="Path 5968" d="M2377.506-338.419l-33.522,20.6-33.518,20.6h67.04Z" transform="translate(-2284.161 396.56)" fill="#ff7f82"/>
      <path id="Path_5969" data-name="Path 5969" d="M2295.137-245.944h51.826c6.911,0,12.514,6.081,12.514,13.583h0c0,7.5-5.6,13.583-12.514,13.583h-51.826c-6.912,0-12.514-6.081-12.514-13.583h0C2282.623-239.863,2288.226-245.944,2295.137-245.944Z" transform="translate(-2261.144 335)" fill="#00416b" stroke="#fd495c" stroke-miterlimit="10" stroke-width="2"/>
      <path id="Path_5970" data-name="Path 5970" d="M2507.216-134.268a3.152,3.152,0,0,1-3.076-1.765l-9.809-20.115a1.18,1.18,0,0,0-1.579-.541,1.179,1.179,0,0,0-.367.28l-6.405,7.689a3.156,3.156,0,0,1-4.449.353,3.156,3.156,0,0,1-1.107-2.329l-1.193-43.9a3.156,3.156,0,0,1,3.07-3.239,3.157,3.157,0,0,1,2.095.722l33.849,27.982a3.139,3.139,0,0,1,1,3.417,3.178,3.178,0,0,1-2.818,2.166l-10.052.311h-.02a1.184,1.184,0,0,0-1.063,1.293,1.19,1.19,0,0,0,.114.4l9.805,20.115a3.152,3.152,0,0,1-1.451,4.216l-5.4,2.634A3.149,3.149,0,0,1,2507.216-134.268Zm-14.188-24.508a3.166,3.166,0,0,1,3.079,1.765l9.805,20.112a1.177,1.177,0,0,0,1.571.548l.007,0,5.4-2.631a1.182,1.182,0,0,0,.6-.669,1.154,1.154,0,0,0-.057-.9l-9.806-20.119a3.133,3.133,0,0,1,.117-2.975,3.213,3.213,0,0,1,2.541-1.555l10.053-.311h.027a1.183,1.183,0,0,0,1.054-1.3,1.185,1.185,0,0,0-.419-.787h0l-33.852-27.982a1.144,1.144,0,0,0-1.267-.15,1.157,1.157,0,0,0-.668,1.093l1.193,43.9a1.183,1.183,0,0,0,1.221,1.144,1.183,1.183,0,0,0,.848-.4l6.405-7.689A3.173,3.173,0,0,1,2493.027-158.776Z" transform="translate(-2396.506 302.976)" fill="#4d6c8e"/>
      <text id="DELIVER" transform="translate(58.835 105.774)" fill="#fff" font-size="9" font-family="Nilland-Black, Nilland" font-weight="800"><tspan x="-19.751" y="0">DEL</tspan><tspan y="0" font-family="GillSansMT-Bold, Gill Sans MT" font-weight="700">I</tspan><tspan y="0">VER</tspan></text>
      <path id="Path_5971" data-name="Path 5971" d="M2519.621-166.393l-33.862-27.985a2.166,2.166,0,0,0-3.048.306,2.166,2.166,0,0,0-.489,1.422l1.2,43.9a2.17,2.17,0,0,0,2.231,2.106,2.169,2.169,0,0,0,1.566-.736l6.419-7.709a2.17,2.17,0,0,1,3.062-.2,2.167,2.167,0,0,1,.519.68l9.8,20.122a2.167,2.167,0,0,0,2.894,1.005l0,0,5.4-2.631a2.166,2.166,0,0,0,1-2.894l0,0-9.805-20.115a2.166,2.166,0,0,1,1-2.9,2.17,2.17,0,0,1,.828-.216l10.029-.311a2.17,2.17,0,0,0,2.049-2.284A2.17,2.17,0,0,0,2519.621-166.393Z" transform="translate(-2398.497 300.999)" fill="#fff"/>
    </g>
    <g id="Group_528" data-name="Group 528" transform="translate(2261.423 -501.041)">
      <g id="search" transform="translate(0 0)">
        <path id="Path_5972" data-name="Path 5972" d="M2359.784-443.937h-2.518l-.944-.944a19.7,19.7,0,0,0,5.035-13.219,20.416,20.416,0,0,0-20.457-20.457,20.416,20.416,0,0,0-20.457,20.457,20.417,20.417,0,0,0,20.457,20.457,19.7,19.7,0,0,0,13.219-5.036l.944.944v2.518L2370.8-423.48l4.721-4.721Zm-18.883,0a14.1,14.1,0,0,1-14.163-14.163,14.1,14.1,0,0,1,14.163-14.163,14.1,14.1,0,0,1,14.163,14.163A14.1,14.1,0,0,1,2340.9-443.937Z" transform="translate(-2320.443 478.557)" fill="#00416b"/>
      </g>
    </g>
    <g id="Group_543" data-name="Group 543" transform="translate(2267.717 -494.747)">
      <g id="Group_542" data-name="Group 542" clip-path="url(#clip-path)">
        <g id="Group_541" data-name="Group 541" transform="translate(-54.583 -43.187)">
          <rect id="Rectangle_118" data-name="Rectangle 118" width="155.097" height="96.356" rx="15.029" transform="translate(0 55.137)" fill="#00416b"/>
          <path id="Path_5973" data-name="Path 5973" d="M2335.425-408.445v83.065a2.149,2.149,0,0,1-1.935,2.179H2191.2a2.144,2.144,0,0,1-2.114-2.174v-83.07a2.144,2.144,0,0,1,2.108-2.179h142.121a2.14,2.14,0,0,1,2.11,2.17Z" transform="translate(-2184.711 470.228)" fill="#fff"/>
          <rect id="Rectangle_119" data-name="Rectangle 119" width="17.657" height="6.184" transform="translate(68.72 151.493)" fill="#4d6c8e"/>
          <path id="Path_5974" data-name="Path 5974" d="M2336.093-114.6a6.41,6.41,0,0,1,5.182-2.615H2375.5a6.424,6.424,0,0,1,5.186,2.615l2.615,3.551h-49.812Z" transform="translate(-2280.838 274.904)" fill="#00416b"/>
          <rect id="Rectangle_120" data-name="Rectangle 120" width="87.386" height="53.704" transform="translate(34.287 75.785)" fill="#fd495c"/>
          <path id="Path_5975" data-name="Path 5975" d="M2322.252-476.58l-43.69,38.231h87.386Z" transform="translate(-2244.274 514.134)" fill="#fd495c"/>
          <path id="Path_5976" data-name="Path 5976" d="M2365.947-362.22l-43.7,26.848-43.69-26.848,40.4,22.791a7.177,7.177,0,0,0,6.578,0Z" transform="translate(-2244.274 438.005)" fill="#54565a" opacity="0.25"/>
          <g id="Group_540" data-name="Group 540" transform="translate(39.794)">
            <g id="Group_530" data-name="Group 530">
              <path id="Path_5977" data-name="Path 5977" d="M2367.921-465.4h-69.4a3.485,3.485,0,0,1-3.485-3.485v-94.11a3.485,3.485,0,0,1,3.485-3.485l31.5-.126v2.072l7.459.415-.414-2.487,30.86.126a3.485,3.485,0,0,1,3.485,3.485v94.11A3.485,3.485,0,0,1,2367.921-465.4Z" transform="translate(-2295.035 574.061)" fill="#869ab2"/>
              <path id="Path_5978" data-name="Path 5978" d="M2295.035-492.567v72.97a3.485,3.485,0,0,0,3.485,3.485h69.4a3.485,3.485,0,0,0,3.485-3.485V-434Z" transform="translate(-2295.035 524.776)" fill="#4d6c8e"/>
              <rect id="Rectangle_121" data-name="Rectangle 121" width="67.497" height="91.753" rx="4.261" transform="translate(4.437 12.248)" fill="#f3f4f6"/>
              <g id="Group_529" data-name="Group 529" transform="translate(23.864)">
                <path id="Path_5979" data-name="Path 5979" d="M2386.529-582.823c0-.1.014-.19.014-.286a5.8,5.8,0,0,0-5.8-5.8,5.8,5.8,0,0,0-5.8,5.8c0,.1.01.191.014.286h-8.532v8.847h28.644v-8.847Zm-5.79,2.973a3.259,3.259,0,0,1-3.259-3.259,3.259,3.259,0,0,1,3.259-3.259,3.259,3.259,0,0,1,3.259,3.259A3.259,3.259,0,0,1,2380.739-579.85Z" transform="translate(-2366.417 588.913)" fill="#00416b"/>
                <rect id="Rectangle_122" data-name="Rectangle 122" width="28.644" height="0.609" transform="translate(0 14.938)" fill="#00416b" opacity="0.5"/>
                <path id="Path_5980" data-name="Path 5980" d="M2366.417-570.7v8.848h28.644Z" transform="translate(-2366.417 576.786)" fill="#4d6c8e"/>
              </g>
            </g>
            <g id="Group_539" data-name="Group 539" transform="translate(12.03 26.569)">
              <g id="Group_532" data-name="Group 532">
                <path id="Path_5981" data-name="Path 5981" d="M2342.3-498.159h-11.279v-11.278H2342.3Zm-10.864-.414h10.45v-10.45h-10.45Z" transform="translate(-2331.019 509.437)" fill="#00416b"/>
                <g transform="matrix(1, 0, 0, 1, -33.18, 4.75)" filter="url(#Path_5982)">
                  <path id="Path_5982-2" data-name="Path 5982" d="M2341.3-498.362l-3.89-3.054,1.024-1.3,2.755,2.163,6.235-6.008,1.15,1.194Z" transform="translate(-2302.1 502.77)" fill="#ff7f82"/>
                </g>
                <g id="Group_531" data-name="Group 531" transform="translate(15.868 2.454)">
                  <path id="Path_5983" data-name="Path 5983" d="M2414.3-501.259h-35.4a.418.418,0,0,1-.418-.418h0a.418.418,0,0,1,.418-.418h35.4a.418.418,0,0,1,.418.418h0A.418.418,0,0,1,2414.3-501.259Z" transform="translate(-2378.484 502.095)" fill="#869ab2"/>
                  <path id="Path_5984" data-name="Path 5984" d="M2414.3-495.742h-35.4a.418.418,0,0,1-.418-.418h0a.418.418,0,0,1,.418-.418h35.4a.418.418,0,0,1,.418.418h0A.418.418,0,0,1,2414.3-495.742Z" transform="translate(-2378.484 498.422)" fill="#869ab2"/>
                  <path id="Path_5985" data-name="Path 5985" d="M2414.3-490.226h-35.4a.418.418,0,0,1-.418-.418h0a.418.418,0,0,1,.418-.418h35.4a.418.418,0,0,1,.418.418h0A.418.418,0,0,1,2414.3-490.226Z" transform="translate(-2378.484 494.75)" fill="#869ab2"/>
                  <path id="Path_5986" data-name="Path 5986" d="M2414.3-484.709h-35.4a.418.418,0,0,1-.418-.418h0a.418.418,0,0,1,.418-.418h35.4a.418.418,0,0,1,.418.418h0A.418.418,0,0,1,2414.3-484.709Z" transform="translate(-2378.484 491.078)" fill="#869ab2"/>
                </g>
              </g>
              <g id="Group_534" data-name="Group 534" transform="translate(0 17.49)">
                <path id="Path_5987" data-name="Path 5987" d="M2342.3-445.842h-11.279v-11.279H2342.3Zm-10.864-.415h10.45v-10.449h-10.45Z" transform="translate(-2331.019 457.121)" fill="#00416b"/>
                <g transform="matrix(1, 0, 0, 1, -33.18, -12.74)" filter="url(#Path_5988)">
                  <path id="Path_5988-2" data-name="Path 5988" d="M2341.3-446.045l-3.89-3.054,1.024-1.3,2.755,2.163,6.235-6.008,1.15,1.194Z" transform="translate(-2302.1 467.94)" fill="#ff7f82"/>
                </g>
                <g id="Group_533" data-name="Group 533" transform="translate(15.868 2.455)">
                  <path id="Path_5989" data-name="Path 5989" d="M2414.3-448.942h-35.4a.418.418,0,0,1-.418-.418h0a.418.418,0,0,1,.418-.418h35.4a.418.418,0,0,1,.418.418h0A.418.418,0,0,1,2414.3-448.942Z" transform="translate(-2378.484 449.778)" fill="#869ab2"/>
                  <path id="Path_5990" data-name="Path 5990" d="M2414.3-443.426h-35.4a.418.418,0,0,1-.418-.418h0a.418.418,0,0,1,.418-.418h35.4a.418.418,0,0,1,.418.418h0A.418.418,0,0,1,2414.3-443.426Z" transform="translate(-2378.484 446.106)" fill="#869ab2"/>
                  <path id="Path_5991" data-name="Path 5991" d="M2414.3-437.909h-35.4a.418.418,0,0,1-.418-.418h0a.418.418,0,0,1,.418-.418h35.4a.418.418,0,0,1,.418.418h0A.418.418,0,0,1,2414.3-437.909Z" transform="translate(-2378.484 442.433)" fill="#869ab2"/>
                  <path id="Path_5992" data-name="Path 5992" d="M2414.3-432.392h-35.4a.418.418,0,0,1-.418-.418h0a.418.418,0,0,1,.418-.418h35.4a.418.418,0,0,1,.418.418h0A.418.418,0,0,1,2414.3-432.392Z" transform="translate(-2378.484 438.761)" fill="#869ab2"/>
                </g>
              </g>
              <g id="Group_536" data-name="Group 536" transform="translate(0 34.98)">
                <path id="Path_5993" data-name="Path 5993" d="M2342.3-393.526h-11.279V-404.8H2342.3Zm-10.864-.414h10.45v-10.449h-10.45Z" transform="translate(-2331.019 404.804)" fill="#00416b"/>
                <g transform="matrix(1, 0, 0, 1, -33.18, -30.23)" filter="url(#Path_5994)">
                  <path id="Path_5994-2" data-name="Path 5994" d="M2341.3-393.728l-3.89-3.054,1.024-1.3,2.755,2.163,6.235-6.008,1.15,1.194Z" transform="translate(-2302.1 433.12)" fill="#ff7f82"/>
                </g>
                <g id="Group_535" data-name="Group 535" transform="translate(15.868 2.454)">
                  <path id="Path_5995" data-name="Path 5995" d="M2414.3-396.626h-35.4a.418.418,0,0,1-.418-.418h0a.418.418,0,0,1,.418-.418h35.4a.418.418,0,0,1,.418.418h0A.418.418,0,0,1,2414.3-396.626Z" transform="translate(-2378.484 397.462)" fill="#869ab2"/>
                  <path id="Path_5996" data-name="Path 5996" d="M2414.3-391.109h-35.4a.418.418,0,0,1-.418-.418h0a.418.418,0,0,1,.418-.418h35.4a.418.418,0,0,1,.418.418h0A.418.418,0,0,1,2414.3-391.109Z" transform="translate(-2378.484 393.789)" fill="#869ab2"/>
                  <path id="Path_5997" data-name="Path 5997" d="M2414.3-385.592h-35.4a.418.418,0,0,1-.418-.418h0a.418.418,0,0,1,.418-.418h35.4a.418.418,0,0,1,.418.418h0A.418.418,0,0,1,2414.3-385.592Z" transform="translate(-2378.484 390.117)" fill="#869ab2"/>
                  <path id="Path_5998" data-name="Path 5998" d="M2414.3-380.075h-35.4a.418.418,0,0,1-.418-.418h0a.418.418,0,0,1,.418-.418h35.4a.418.418,0,0,1,.418.418h0A.418.418,0,0,1,2414.3-380.075Z" transform="translate(-2378.484 386.444)" fill="#869ab2"/>
                </g>
              </g>
              <g id="Group_538" data-name="Group 538" transform="translate(0 52.469)">
                <path id="Path_5999" data-name="Path 5999" d="M2342.3-341.209h-11.279v-11.279H2342.3Zm-10.864-.414h10.45v-10.45h-10.45Z" transform="translate(-2331.019 352.488)" fill="#00416b"/>
                <g transform="matrix(1, 0, 0, 1, -33.18, -47.72)" filter="url(#Path_6000)">
                  <path id="Path_6000-2" data-name="Path 6000" d="M2341.3-341.412l-3.89-3.054,1.024-1.3,2.755,2.163,6.235-6.008,1.15,1.194Z" transform="translate(-2302.1 398.29)" fill="#ff7f82"/>
                </g>
                <g id="Group_537" data-name="Group 537" transform="translate(15.868 2.455)">
                  <path id="Path_6001" data-name="Path 6001" d="M2414.3-344.309h-35.4a.418.418,0,0,1-.418-.418h0a.418.418,0,0,1,.418-.418h35.4a.418.418,0,0,1,.418.418h0A.418.418,0,0,1,2414.3-344.309Z" transform="translate(-2378.484 345.145)" fill="#869ab2"/>
                  <path id="Path_6002" data-name="Path 6002" d="M2414.3-338.792h-35.4a.418.418,0,0,1-.418-.418h0a.418.418,0,0,1,.418-.418h35.4a.418.418,0,0,1,.418.418h0A.418.418,0,0,1,2414.3-338.792Z" transform="translate(-2378.484 341.472)" fill="#869ab2"/>
                  <path id="Path_6003" data-name="Path 6003" d="M2414.3-333.276h-35.4a.418.418,0,0,1-.418-.418h0a.418.418,0,0,1,.418-.418h35.4a.418.418,0,0,1,.418.418h0A.418.418,0,0,1,2414.3-333.276Z" transform="translate(-2378.484 337.8)" fill="#869ab2"/>
                  <path id="Path_6004" data-name="Path 6004" d="M2414.3-327.759h-35.4a.418.418,0,0,1-.418-.418h0a.418.418,0,0,1,.418-.418h35.4a.418.418,0,0,1,.418.418h0A.418.418,0,0,1,2414.3-327.759Z" transform="translate(-2378.484 334.128)" fill="#869ab2"/>
                </g>
              </g>
            </g>
          </g>
          <path id="Path_6005" data-name="Path 6005" d="M2278.562-362.22l43.69,26.852,43.7,26.852h-87.386Z" transform="translate(-2244.274 438.005)" fill="#ff616b"/>
          <path id="Path_6006" data-name="Path 6006" d="M2365.948-362.22l-43.7,26.852-43.69,26.852h87.386Z" transform="translate(-2244.274 438.005)" fill="#ff7f82"/>
          <path id="Path_6007" data-name="Path 6007" d="M2260.484-241.68h75.435a18.215,18.215,0,0,1,18.215,18.215h0a18.215,18.215,0,0,1-18.215,18.215h-75.435a18.215,18.215,0,0,1-18.215-18.215h0A18.215,18.215,0,0,1,2260.484-241.68Z" transform="translate(-2220.115 357.763)" fill="#ff898a"/>
          <path id="Path_6008" data-name="Path 6008" d="M2535.021-96.111a4.109,4.109,0,0,1-4.009-2.3l-12.785-26.22a1.538,1.538,0,0,0-2.058-.705,1.541,1.541,0,0,0-.478.365l-8.349,10.023a4.114,4.114,0,0,1-5.8.461,4.113,4.113,0,0,1-1.443-3.036l-1.555-57.225a4.113,4.113,0,0,1,4-4.223,4.114,4.114,0,0,1,2.731.941l44.121,36.474a4.092,4.092,0,0,1,1.307,4.453,4.144,4.144,0,0,1-3.673,2.824l-13.1.405h-.026a1.543,1.543,0,0,0-1.385,1.685,1.545,1.545,0,0,0,.147.524l12.781,26.22a4.109,4.109,0,0,1-1.891,5.5l-7.042,3.434A4.106,4.106,0,0,1,2535.021-96.111Zm-18.494-31.946a4.126,4.126,0,0,1,4.013,2.3l12.781,26.215a1.535,1.535,0,0,0,2.049.715l.009,0,7.042-3.429a1.543,1.543,0,0,0,.78-.872,1.506,1.506,0,0,0-.074-1.172l-12.781-26.224a4.083,4.083,0,0,1,.153-3.878,4.187,4.187,0,0,1,3.312-2.026l13.1-.406h.035a1.542,1.542,0,0,0,1.375-1.694,1.546,1.546,0,0,0-.546-1.025h0l-44.126-36.474a1.491,1.491,0,0,0-1.652-.2,1.508,1.508,0,0,0-.872,1.425l1.556,57.225a1.542,1.542,0,0,0,1.591,1.492,1.541,1.541,0,0,0,1.106-.52l8.349-10.023A4.136,4.136,0,0,1,2516.528-128.057Z" transform="translate(-2390.714 316.02)" fill="#4d6c8e"/>
          <text id="SUBMIT_PROJECT" data-name="SUBMIT PROJECT" transform="translate(68.301 134.775)" fill="#00416b" font-size="8" font-family="Nilland-Bold, Nilland" font-weight="700"><tspan x="-31.252" y="0">SUBMIT PROJECT</tspan></text>
          <path id="Path_6009" data-name="Path 6009" d="M2551.192-137.987l-44.138-36.478a2.824,2.824,0,0,0-3.974.4,2.825,2.825,0,0,0-.637,1.854l1.56,57.229a2.828,2.828,0,0,0,2.908,2.746,2.828,2.828,0,0,0,2.042-.959l8.367-10.049a2.828,2.828,0,0,1,3.991-.258,2.821,2.821,0,0,1,.676.886l12.777,26.229a2.824,2.824,0,0,0,3.772,1.31l.006,0,7.038-3.429a2.824,2.824,0,0,0,1.31-3.772l0-.006-12.781-26.22a2.824,2.824,0,0,1,1.3-3.776,2.822,2.822,0,0,1,1.079-.281l13.073-.405a2.828,2.828,0,0,0,2.671-2.977A2.829,2.829,0,0,0,2551.192-137.987Z" transform="translate(-2393.31 313.443)" fill="#fff"/>
        </g>
      </g>
    </g>
  </g>
</svg>
