<svg xmlns="http://www.w3.org/2000/svg" width="119.62" height="166.231" viewBox="0 0 119.62 166.231">
  <g id="Group_554" data-name="Group 554" transform="translate(-169 -1665)">
    <rect id="Rectangle_92" data-name="Rectangle 92" width="115.813" height="71.95" rx="11.53" transform="translate(169 1708.186)" fill="#00416b"/>
    <path id="Path_5861" data-name="Path 5861" d="M1550.259,563.089v57.92a1.5,1.5,0,0,1-1.349,1.519h-99.216a1.5,1.5,0,0,1-1.474-1.516V563.089a1.5,1.5,0,0,1,1.47-1.519h99.1a1.492,1.492,0,0,1,1.471,1.513Z" transform="translate(-1272.336 1152.112)" fill="#fff"/>
    <rect id="Rectangle_93" data-name="Rectangle 93" width="13.185" height="4.617" transform="translate(220.314 1780.136)" fill="#4d6c8e"/>
    <path id="Path_5862" data-name="Path 5862" d="M1560.947,788.622a4.787,4.787,0,0,1,3.869-1.952h25.556a4.8,4.8,0,0,1,3.872,1.952l1.952,2.652H1559Z" transform="translate(-1350.687 998.097)" fill="#00416b"/>
    <path id="Path_5863" data-name="Path 5863" d="M1548.219,418.6v3.817a5.532,5.532,0,0,1-5.516,5.532h-4.123Z" transform="translate(-1336.912 1246.4)" fill="#00416b" opacity="0.5"/>
    <rect id="Rectangle_94" data-name="Rectangle 94" width="62.244" height="38.253" transform="translate(195.786 1718.979)" fill="#00416b"/>
    <path id="Path_5864" data-name="Path 5864" d="M1551.621,500.8l-31.12,27.232h62.244Z" transform="translate(-1324.715 1190.947)" fill="#00416b"/>
    <path id="Path_5865" data-name="Path 5865" d="M1589.059,424.115v78.937h-50.478v-75.12h4.129a5.532,5.532,0,0,0,5.515-5.532v-3.8h35.318A5.532,5.532,0,0,1,1589.059,424.115Z" transform="translate(-1336.912 1246.4)" fill="#fff"/>
    <path id="Path_5866" data-name="Path 5866" d="M1520.5,584.49l31.12,19.126,31.124,19.127H1520.5Z" transform="translate(-1324.715 1134.489)" fill="#265279"/>
    <path id="Path_5867" data-name="Path 5867" d="M1582.745,584.49l-31.124,19.126-31.12,19.127h62.244Z" transform="translate(-1324.715 1134.489)" fill="#4d6c8e"/>
    <path id="Path_5868" data-name="Path 5868" d="M1582.745,584.49l-31.124,19.123L1520.5,584.49l28.777,16.234a5.113,5.113,0,0,0,4.686,0Z" transform="translate(-1324.715 1134.489)" fill="#54565a" opacity="0.25"/>
    <rect id="Rectangle_95" data-name="Rectangle 95" width="19.754" height="1.227" transform="translate(207.78 1683.024)" fill="#00416b"/>
    <rect id="Rectangle_96" data-name="Rectangle 96" width="28.27" height="0.866" transform="translate(217.766 1690.849)" fill="#00416b"/>
    <rect id="Rectangle_97" data-name="Rectangle 97" width="38.256" height="0.866" transform="translate(207.78 1693.029)" fill="#00416b"/>
    <rect id="Rectangle_98" data-name="Rectangle 98" width="38.256" height="0.866" transform="translate(207.78 1695.209)" fill="#00416b"/>
    <rect id="Rectangle_99" data-name="Rectangle 99" width="38.256" height="0.866" transform="translate(207.78 1697.39)" fill="#00416b"/>
    <rect id="Rectangle_100" data-name="Rectangle 100" width="38.256" height="0.866" transform="translate(207.78 1699.57)" fill="#00416b"/>
    <rect id="Rectangle_101" data-name="Rectangle 101" width="22.54" height="0.866" transform="translate(207.78 1701.75)" fill="#00416b"/>
    <path id="Path_5869" data-name="Path 5869" d="M1502.622,691.18h56.328a13.6,13.6,0,0,1,13.6,13.6h0a13.6,13.6,0,0,1-13.6,13.6h-56.328a13.6,13.6,0,0,1-13.6-13.6h0A13.6,13.6,0,0,1,1502.622,691.18Z" transform="translate(-1303.478 1062.515)" fill="#ff898a"/>
    <path id="Path_5870" data-name="Path 5870" d="M1712.867,801.161a3.069,3.069,0,0,1-2.994-1.718l-9.547-19.579a1.149,1.149,0,0,0-1.894-.254l-6.234,7.484a3.072,3.072,0,0,1-5.408-1.923l-1.162-42.73a3.071,3.071,0,0,1,5.027-2.45l32.946,27.235a3.055,3.055,0,0,1,.976,3.325,3.094,3.094,0,0,1-2.743,2.109l-9.785.3h-.019a1.152,1.152,0,0,0-.924,1.65l9.544,19.579a3.069,3.069,0,0,1-1.412,4.1l-5.258,2.564A3.071,3.071,0,0,1,1712.867,801.161Zm-13.81-23.854a3.081,3.081,0,0,1,3,1.718L1711.6,798.6a1.145,1.145,0,0,0,1.529.534l.007,0,5.258-2.561a1.153,1.153,0,0,0,.582-.651,1.123,1.123,0,0,0-.055-.875l-9.544-19.582a3.048,3.048,0,0,1,.114-2.9,3.126,3.126,0,0,1,2.473-1.513l5.6-.173,4.182-.129h.026a1.152,1.152,0,0,0,.618-2.03h0l-32.949-27.235a1.114,1.114,0,0,0-1.233-.146,1.126,1.126,0,0,0-.651,1.064l1.162,42.73a1.152,1.152,0,0,0,2.014.726l6.234-7.484A3.088,3.088,0,0,1,1699.058,777.306Z" transform="translate(-1436.111 1030.062)" fill="#4d6c8e"/>
    <text id="SUBMIT_" data-name="SUBMIT " transform="translate(228 1770.682)" fill="#00416b" font-size="9" font-family="Nilland-Black, Nilland" font-weight="800"><tspan x="-18.531" y="0">SUBMIT </tspan></text>
    <path id="Path_5871" data-name="Path 5871" d="M1725.021,769.971l-32.959-27.239a2.109,2.109,0,0,0-3.443,1.682l1.165,42.734a2.112,2.112,0,0,0,3.7,1.334l6.248-7.5a2.111,2.111,0,0,1,3.485.469l9.541,19.585a2.108,2.108,0,0,0,2.817.978l0,0,5.255-2.561a2.108,2.108,0,0,0,.978-2.817l0,0-9.544-19.579a2.108,2.108,0,0,1,1.777-3.029l9.762-.3a2.112,2.112,0,0,0,1.22-3.745Z" transform="translate(-1438.129 1028.058)" fill="#fff"/>
  </g>
</svg>
